<svg width="361" height="30" viewBox="0 0 361 30" fill="none" xmlns="http://www.w3.org/2000/svg">
<path d="M2.25 4.884V16.056C2.25 21.954 7.669 27.75 13.568 27.75H347.387C353.286 27.75 357 21.954 357 16.056V4.884C357 3.957 357.981 3 357.757 3H3.198C2.975 3 2.25 3.957 2.25 4.884Z" fill="#7E231D"/>
<path d="M5.295 4.5C5.298 4.5 5.25 4.734 5.25 4.884V16.056C5.25 20.901 9.087 24.75 13.568 24.75H347.387C351.868 24.75 355.5 20.901 355.5 16.056V4.884C355.5 4.734 355.656 4.5 355.659 4.5H5.295ZM347.387 29.25H13.568C6.664 29.25 0 23.323 0 16.056V4.884C0 4.69 0.411 4.498 0.407 4.307C0.389 3.509 0.576001 2.621 0.828001 1.655L1.472 0H359.484L359.919 1.656C360.17 2.621 360.088 3.51799 360.07 4.31599C360.066 4.50599 360 4.69 360 4.884V16.056C360 23.323 354.291 29.25 347.387 29.25Z" fill="black"/>
<mask id="mask0_43_867" style="mask-type:luminance" maskUnits="userSpaceOnUse" x="44" y="8" width="9" height="9">
<path d="M44.855 8.41992H52.6V16.1659H44.855V8.41992Z" fill="white"/>
</mask>
<g mask="url(#mask0_43_867)">
<g opacity="0.23">
<path d="M52.6 12.2939C52.6 14.4319 50.866 16.1669 48.727 16.1669C46.588 16.1669 44.854 14.4319 44.854 12.2939C44.854 10.1539 46.588 8.41992 48.727 8.41992C50.866 8.41992 52.6 10.1539 52.6 12.2939Z" fill="#441310"/>
</g>
</g>
<mask id="mask1_43_867" style="mask-type:luminance" maskUnits="userSpaceOnUse" x="120" y="11" width="9" height="9">
<path d="M120.824 11.995H128.57V19.742H120.824V11.995Z" fill="white"/>
</mask>
<g mask="url(#mask1_43_867)">
<g opacity="0.55">
<path d="M128.57 15.868C128.57 18.007 126.836 19.742 124.697 19.742C122.558 19.742 120.824 18.007 120.824 15.868C120.824 13.729 122.558 11.994 124.697 11.994C126.836 11.994 128.57 13.729 128.57 15.868Z" fill="#441310"/>
</g>
</g>
<mask id="mask2_43_867" style="mask-type:luminance" maskUnits="userSpaceOnUse" x="150" y="4" width="9" height="9">
<path d="M150.318 4.84399H158.063V12.592H150.318V4.84399Z" fill="white"/>
</mask>
<g mask="url(#mask2_43_867)">
<g opacity="0.65">
<path d="M158.064 8.71799C158.064 10.857 156.33 12.592 154.191 12.592C152.051 12.592 150.318 10.857 150.318 8.71799C150.318 6.57899 152.051 4.84399 154.191 4.84399C156.33 4.84399 158.064 6.57899 158.064 8.71799Z" fill="#441310"/>
</g>
</g>
<mask id="mask3_43_867" style="mask-type:luminance" maskUnits="userSpaceOnUse" x="211" y="10" width="14" height="13">
<path d="M211.987 10.356H224.052V22.423H211.987V10.356Z" fill="white"/>
</mask>
<g mask="url(#mask3_43_867)">
<g opacity="0.33">
<path d="M224.052 16.39C224.052 19.722 221.351 22.424 218.02 22.424C214.688 22.424 211.987 19.722 211.987 16.39C211.987 13.058 214.688 10.356 218.02 10.356C221.351 10.356 224.052 13.058 224.052 16.39Z" fill="#441310"/>
</g>
</g>
<mask id="mask4_43_867" style="mask-type:luminance" maskUnits="userSpaceOnUse" x="313" y="5" width="42" height="18">
<path d="M313.816 5.70898H354.251V22.305H313.816V5.70898Z" fill="white"/>
</mask>
<g mask="url(#mask4_43_867)">
<g opacity="0.45">
<path d="M348.509 22.273H330.633C329.282 22.273 325.46 22.374 321.628 22.22C316.418 22.01 312.743 17.03 314.099 11.995C318.862 9.00403 323.717 6.37204 326.761 6.37204L344.747 6.22404C347.792 6.22404 355.696 3.02103 354.02 12.59V16.761C354.02 19.805 351.553 22.273 348.509 22.273Z" fill="#441310"/>
</g>
</g>
</svg>
