<svg width="66" height="66" viewBox="0 0 66 66" fill="none" xmlns="http://www.w3.org/2000/svg">
<mask id="mask0_29_588" style="mask-type:alpha" maskUnits="userSpaceOnUse" x="0" y="0" width="66" height="66">
<circle cx="33" cy="33" r="33" fill="#D9D9D9"/>
</mask>
<g mask="url(#mask0_29_588)">
<path d="M0 5.12447V35.5123C0 51.5549 1.02606 67.32 2.14301 67.32H65.3502C66.4671 67.32 67.1704 51.5549 67.1704 35.5123V5.12447C67.1704 2.60303 67.3561 0 67.3137 0H0.1795C0.137276 0 0 2.60303 0 5.12447Z" fill="#7E231D"/>
<mask id="mask1_29_588" style="mask-type:luminance" maskUnits="userSpaceOnUse" x="10" y="38" width="6" height="9">
<path d="M10.56 38.9399H15.6717V46.106H10.56V38.9399Z" fill="white"/>
</mask>
<g mask="url(#mask1_29_588)">
<g opacity="0.23">
<path d="M15.6716 42.5239C15.6716 44.5018 14.5272 46.1069 13.1154 46.1069C11.7037 46.1069 10.5593 44.5018 10.5593 42.5239C10.5593 40.5441 11.7037 38.9399 13.1154 38.9399C14.5272 38.9399 15.6716 40.5441 15.6716 42.5239Z" fill="#441310"/>
</g>
</g>
<mask id="mask2_29_588" style="mask-type:luminance" maskUnits="userSpaceOnUse" x="15" y="10" width="6" height="8">
<path d="M15.84 10.5601H20.9524V17.727H15.84V10.5601Z" fill="white"/>
</mask>
<g mask="url(#mask2_29_588)">
<g opacity="0.55">
<path d="M20.9524 14.1428C20.9524 16.1216 19.8079 17.7267 18.3962 17.7267C16.9845 17.7267 15.84 16.1216 15.84 14.1428C15.84 12.1639 16.9845 10.5588 18.3962 10.5588C19.8079 10.5588 20.9524 12.1639 20.9524 14.1428Z" fill="#441310"/>
</g>
</g>
<mask id="mask3_29_588" style="mask-type:luminance" maskUnits="userSpaceOnUse" x="27" y="27" width="6" height="8">
<path d="M27.72 27.0601H32.8317V34.2279H27.72V27.0601Z" fill="white"/>
</mask>
<g mask="url(#mask3_29_588)">
<g opacity="0.65">
<path d="M32.8323 30.644C32.8323 32.6229 31.6879 34.2279 30.2762 34.2279C28.8638 34.2279 27.72 32.6229 27.72 30.644C27.72 28.6652 28.8638 27.0601 30.2762 27.0601C31.6879 27.0601 32.8323 28.6652 32.8323 30.644Z" fill="#441310"/>
</g>
</g>
<mask id="mask4_29_588" style="mask-type:luminance" maskUnits="userSpaceOnUse" x="47" y="10" width="9" height="12">
<path d="M47.52 10.5601H55.4829V21.7236H47.52V10.5601Z" fill="white"/>
</mask>
<g mask="url(#mask4_29_588)">
<g opacity="0.33">
<path d="M55.4829 16.1423C55.4829 19.2248 53.7003 21.7245 51.5018 21.7245C49.3027 21.7245 47.52 19.2248 47.52 16.1423C47.52 13.0598 49.3027 10.5601 51.5018 10.5601C53.7003 10.5601 55.4829 13.0598 55.4829 16.1423Z" fill="#441310"/>
</g>
</g>
<mask id="mask5_29_588" style="mask-type:luminance" maskUnits="userSpaceOnUse" x="33" y="30" width="30" height="31">
<path d="M33 49.2307L51.8706 30.3601L62.7271 41.2166L43.8565 60.0872L33 49.2307Z" fill="white"/>
</mask>
<g mask="url(#mask5_29_588)">
<g opacity="0.45">
<path d="M52.6009 41.7637L48.8673 50.6309C48.2368 51.2614 49.3357 54.6983 47.4466 56.386C44.8777 58.68 39.9049 57.1374 37.244 53.2108C37.5103 49.0314 43.9289 47.3044 45.3495 45.8838L47.772 35.1325C49.1931 33.7114 50.7865 27.9274 56.264 34.9693L58.9925 37.6978C60.9838 39.6891 54.0215 40.3431 52.6009 41.7637Z" fill="#441310"/>
</g>
</g>
</g>
</svg>
