<svg width="363" height="45" viewBox="0 0 363 45" fill="none" xmlns="http://www.w3.org/2000/svg">
<path d="M357.192 17.3108L337.708 38.5028C333.514 43.0638 316.708 43.9218 309.19 39.9588L267.755 18.1168C263.627 15.9408 255.245 15.5038 249.588 17.1688C226.331 24.0128 193.644 24.7808 168.137 19.0808L157.253 16.6488C149.65 14.9498 141.794 14.7088 134.101 15.9368C110.333 19.7318 83.3826 19.9758 59.1176 16.6178C43.7926 17.9068 27.7546 17.5178 13.0426 15.5008C6.79359 14.6438 2.6606 12.4788 2.6606 10.0608C1.1116 6.2828 3.9416 2.1548 8.0246 2.2368L355.133 5.58981C357.92 5.61681 360.164 7.8838 360.164 10.6708C360.164 12.9278 359.161 15.1688 357.192 17.3108Z" fill="#FFB571"/>
<path d="M257.461 13.9118C261.774 13.9118 266.029 14.6808 268.797 16.1398L310.233 37.9828C317.313 41.7158 332.788 40.5528 336.062 36.9908L355.547 15.7988C357.128 14.0788 357.93 12.3538 357.93 10.6708C357.93 9.11581 356.666 7.8398 355.112 7.8248L8.0036 4.4718C6.7786 4.4378 5.7416 4.99281 5.0746 5.96481C4.4066 6.93881 4.2806 8.12281 4.7286 9.21481L4.8956 9.62181V10.0618C5.0126 10.5948 7.3226 12.4618 13.3466 13.2878C27.9526 15.2888 43.7156 15.6718 58.9306 14.3918L59.1776 14.3708L59.4236 14.4048C83.6356 17.7568 110.033 17.5168 133.749 13.7308C141.758 12.4518 149.83 12.7008 157.74 14.4698L168.625 16.9018C193.772 22.5198 226.055 21.7668 248.957 15.0258C251.51 14.2748 254.499 13.9118 257.461 13.9118ZM322.597 44.7218C317.104 44.7218 311.619 43.7648 308.149 41.9368L266.713 20.0938C263.123 18.1988 255.26 17.8278 250.219 19.3128C226.654 26.2488 193.473 27.0338 167.651 21.2618L156.765 18.8298C149.409 17.1858 141.902 16.9548 134.453 18.1438C110.394 21.9848 83.6276 22.2398 59.0576 18.8648C43.5986 20.1468 27.5876 19.7498 12.7406 17.7158C5.3606 16.7038 0.827598 14.0388 0.451598 10.5378C-0.387402 8.15881 -0.0474027 5.53381 1.3886 3.43881C2.9006 1.23381 5.4136 -0.0802008 8.0696 0.00379923L355.154 3.35681C359.149 3.39381 362.399 6.67481 362.399 10.6708C362.399 13.5078 361.201 16.2518 358.838 18.8228L358.837 18.8238L339.353 40.0168C336.416 43.2098 329.5 44.7218 322.597 44.7218Z" fill="black"/>
</svg>
