<svg width="361" height="48" viewBox="0 0 361 48" fill="none" xmlns="http://www.w3.org/2000/svg">
<path d="M349.097 21.302H151.566C143.776 21.302 136.26 24.177 130.459 29.376L116.558 41.835C110.599 47.176 101.424 46.617 96.1569 40.593L79.2879 21.302H52.9229L45.9759 29.861C38.0409 39.641 22.8519 38.759 16.1009 28.126L15.7929 27.641C13.7519 24.427 10.7739 21.99 7.39589 20.234C4.33589 18.642 2.23389 15.438 2.23389 11.769C2.23389 6.52498 6.52389 2.23499 11.7669 2.23499H349.097C354.34 2.23499 358.63 6.52498 358.63 11.769C358.63 17.012 354.34 21.302 349.097 21.302Z" fill="#FFE471"/>
<path d="M51.859 19.068H80.303L97.839 39.123C99.991 41.582 102.971 43.048 106.233 43.246C109.495 43.44 112.633 42.352 115.067 40.171L128.968 27.712C135.187 22.137 143.213 19.068 151.567 19.068H349.097C353.122 19.068 356.397 15.793 356.397 11.769C356.397 7.744 353.122 4.47 349.097 4.47H11.768C7.743 4.47 4.469 7.744 4.469 11.769C4.469 14.497 5.986 16.98 8.427 18.251C12.44 20.338 15.554 23.095 17.68 26.444L17.987 26.929C20.816 31.383 25.458 34.113 30.725 34.418C35.999 34.728 40.919 32.549 44.242 28.453L51.859 19.068ZM106.995 47.738C106.651 47.738 106.307 47.727 105.961 47.706C101.497 47.435 97.419 45.431 94.475 42.063L78.275 23.536H53.987L47.711 31.269C43.471 36.495 37.192 39.273 30.466 38.879C23.747 38.49 17.824 35.007 14.216 29.325L13.907 28.839C12.209 26.163 9.671 23.935 6.365 22.216C2.439 20.173 0 16.17 0 11.769C0 5.28 5.279 0 11.768 0H349.097C355.586 0 360.865 5.28 360.865 11.769C360.865 18.257 355.586 23.536 349.097 23.536H151.567C144.316 23.536 137.349 26.202 131.95 31.04L118.049 43.498C114.976 46.253 111.085 47.738 106.995 47.738Z" fill="black"/>
</svg>
