<svg width="66" height="61" viewBox="0 0 66 61" fill="none" xmlns="http://www.w3.org/2000/svg">
<mask id="mask0_26_15" style="mask-type:luminance" maskUnits="userSpaceOnUse" x="2" y="54" width="1" height="3">
<path d="M2.0434 54.3743H2.44913V56.613H2.0434V54.3743Z" fill="white"/>
</mask>
<g mask="url(#mask0_26_15)">
<g opacity="0.45">
<path d="M2.24617 54.3743C2.24617 54.3743 2.26385 54.4092 2.2864 54.4704C2.30949 54.5316 2.33728 54.619 2.36325 54.7239C2.41503 54.9339 2.44895 55.2137 2.44913 55.4936C2.44931 55.7734 2.41593 56.0533 2.36379 56.2631C2.33782 56.368 2.30985 56.4554 2.28658 56.5166C2.26403 56.5778 2.24617 56.613 2.24617 56.613C2.24617 56.613 2.22849 56.5778 2.20594 56.5166C2.18267 56.4554 2.1547 56.368 2.12873 56.2631C2.07659 56.0533 2.04321 55.7734 2.04321 55.4936C2.04357 55.2137 2.07731 54.9339 2.12927 54.7239C2.15525 54.619 2.18303 54.5316 2.20612 54.4704C2.22867 54.4092 2.24617 54.3743 2.24617 54.3743Z" fill="#FFE05F"/>
</g>
</g>
<mask id="mask1_26_15" style="mask-type:luminance" maskUnits="userSpaceOnUse" x="2" y="55" width="3" height="2">
<path d="M2.97449 55.0692H4.30552V56.8378H2.97449V55.0692Z" fill="white"/>
</mask>
<g mask="url(#mask1_26_15)">
<g opacity="0.45">
<path d="M4.30552 55.0692C4.30552 55.0692 4.29867 55.108 4.28009 55.1705C4.26205 55.2336 4.23192 55.3201 4.19006 55.4194C4.10618 55.618 3.96654 55.8606 3.80039 56.0817C3.63405 56.3029 3.4412 56.5028 3.2754 56.6358C3.19242 56.7022 3.11827 56.7536 3.06343 56.7874C3.00913 56.8215 2.97449 56.8378 2.97449 56.8378C2.97449 56.8378 2.98116 56.799 2.99974 56.7363C3.01778 56.6732 3.04755 56.5865 3.08941 56.487C3.17311 56.2884 3.31311 56.0462 3.47962 55.8252C3.64614 55.6043 3.83936 55.4045 4.00497 55.2715C4.08796 55.2051 4.16192 55.1536 4.21658 55.1199C4.27089 55.0857 4.30552 55.0692 4.30552 55.0692Z" fill="#FFE05F"/>
</g>
</g>
<mask id="mask2_26_15" style="mask-type:luminance" maskUnits="userSpaceOnUse" x="3" y="57" width="3" height="1">
<path d="M3.45636 57.3585H5.62015V57.8003H3.45636V57.3585Z" fill="white"/>
</mask>
<g mask="url(#mask2_26_15)">
<g opacity="0.45">
<path d="M5.62015 57.4852C5.62015 57.4852 5.58768 57.5063 5.53049 57.5345C5.4733 57.5634 5.39122 57.5993 5.29181 57.6348C5.09337 57.7056 4.82564 57.7639 4.55521 57.7877C4.28497 57.8115 4.01165 57.8005 3.80436 57.7648C3.70081 57.7468 3.61385 57.7254 3.5527 57.7066C3.49172 57.6884 3.45636 57.6733 3.45636 57.6733C3.45636 57.6733 3.48883 57.6521 3.54602 57.6236C3.60321 57.5946 3.6853 57.5585 3.7847 57.523C3.98297 57.4519 4.25069 57.3939 4.5213 57.3709C4.79173 57.3474 5.06486 57.3586 5.27215 57.3943C5.3757 57.4121 5.46266 57.4333 5.52382 57.4519C5.58479 57.4702 5.62015 57.4852 5.62015 57.4852Z" fill="#FFE05F"/>
</g>
</g>
<mask id="mask3_26_15" style="mask-type:luminance" maskUnits="userSpaceOnUse" x="3" y="58" width="2" height="3">
<path d="M3.17041 58.6233H4.73904V60.1712H3.17041V58.6233Z" fill="white"/>
</mask>
<g mask="url(#mask3_26_15)">
<g opacity="0.45">
<path d="M4.73904 60.1712C4.73904 60.1712 4.70242 60.1602 4.64397 60.1345C4.58516 60.1094 4.50452 60.0698 4.41305 60.0164C4.23012 59.91 4.01074 59.7417 3.81446 59.5485C3.61818 59.355 3.44535 59.1367 3.33422 58.9527C3.27865 58.8608 3.23662 58.7795 3.20992 58.72C3.18268 58.6607 3.17041 58.6233 3.17041 58.6233C3.17041 58.6233 3.20721 58.6343 3.26566 58.6597C3.32466 58.6849 3.4053 58.7245 3.49677 58.7775C3.6797 58.8839 3.89907 59.0524 4.09499 59.2462C4.29091 59.4398 4.46356 59.6584 4.57487 59.8422C4.63044 59.934 4.67247 60.0151 4.69935 60.0748C4.72678 60.134 4.73904 60.1712 4.73904 60.1712Z" fill="#FFE05F"/>
</g>
</g>
<path d="M62.5659 50.9467V51.0098C62.5659 51.3009 62.3369 51.5371 62.0544 51.5371H3.74095C3.45862 51.5371 3.2295 51.3009 3.2295 51.0098C3.2295 50.5364 2.6762 50.3074 2.35092 50.6415C1.60368 51.4091 1.13336 52.4661 1.13336 53.6294V54.8475C1.13336 57.507 3.24394 59.6828 5.82339 59.6828H60.1331C62.7127 59.6828 64.8233 57.507 64.8233 54.8475V53.6294C64.8233 52.4185 64.2573 51.3226 63.4143 50.5487C63.0865 50.2475 62.5659 50.494 62.5659 50.9467Z" fill="#F7CE26"/>
<path d="M2.71656 50.8989C2.69203 50.8989 2.66334 50.9074 2.63556 50.9359C1.92692 51.6639 1.5367 52.6201 1.5367 53.6293V54.8475C1.5367 57.2844 3.45966 59.2672 5.82352 59.2672H60.1332C62.4971 59.2672 64.4202 57.2844 64.4202 54.8475V53.6293C64.4202 52.6121 63.9558 51.6023 63.1464 50.8589C63.1141 50.8293 63.0764 50.8235 63.0354 50.8427C63.0105 50.8542 62.969 50.8829 62.969 50.9467V51.0097C62.969 51.5296 62.559 51.9525 62.0545 51.9525H3.74109C3.23685 51.9525 2.82661 51.5296 2.82661 51.0097C2.82661 50.961 2.80496 50.9268 2.76239 50.9085C2.75102 50.9037 2.73496 50.8989 2.71656 50.8989ZM60.1332 60.0983H5.82352C3.01531 60.0983 0.730469 57.7429 0.730469 54.8475V53.6293C0.730469 52.3976 1.20494 51.232 2.06656 50.347C2.33212 50.0743 2.72648 49.9936 3.0716 50.1407C3.4178 50.2891 3.63285 50.6221 3.63285 51.0097C3.63285 51.0713 3.68137 51.1213 3.74109 51.1213H62.0545C62.1141 51.1213 62.1628 51.0713 62.1628 51.0097V50.9467C62.1628 50.5696 62.3706 50.2391 62.7055 50.0842C63.0372 49.9309 63.4119 49.9897 63.6825 50.2382C64.6636 51.139 65.2264 52.3751 65.2264 53.6293V54.8475C65.2264 57.7427 62.9416 60.0983 60.1332 60.0983Z" fill="black"/>
<mask id="mask4_26_15" style="mask-type:luminance" maskUnits="userSpaceOnUse" x="59" y="52" width="5" height="7">
<path d="M59.7041 52.1601H63.9548V58.9346H59.7041V52.1601Z" fill="white"/>
</mask>
<g mask="url(#mask4_26_15)">
<g opacity="0.45">
<path d="M60.1872 58.9345C59.947 58.9345 59.7387 58.7502 59.7078 58.4984C59.6744 58.225 59.8621 57.9755 60.1271 57.9409C61.0657 57.8189 61.7818 57.416 62.2559 56.7436C63.3356 55.2117 62.9016 52.7768 62.897 52.7523C62.8471 52.4816 63.0192 52.2207 63.2817 52.169C63.5447 52.1169 63.7973 52.2951 63.8476 52.5657C63.8691 52.6827 64.3618 55.453 63.0385 57.3303C62.4009 58.2343 61.4625 58.7727 60.2485 58.9306C60.2278 58.9332 60.2074 58.9345 60.1872 58.9345Z" fill="#FFE05F"/>
</g>
</g>
<mask id="mask5_26_15" style="mask-type:luminance" maskUnits="userSpaceOnUse" x="41" y="57" width="18" height="2">
<path d="M41.1613 57.8663H58.2528V58.9823H41.1613V57.8663Z" fill="white"/>
</mask>
<g mask="url(#mask5_26_15)">
<g opacity="0.45">
<path d="M57.7692 58.9823H41.6452C41.378 58.9823 41.1613 58.6999 41.1613 58.4243C41.1613 58.1488 41.378 57.8663 41.6452 57.8663H57.7692C58.0363 57.8663 58.2528 58.1488 58.2528 58.4243C58.2528 58.6999 58.0363 58.9823 57.7692 58.9823Z" fill="#FFE05F"/>
</g>
</g>
<mask id="mask6_26_15" style="mask-type:luminance" maskUnits="userSpaceOnUse" x="3" y="52" width="52" height="2">
<path d="M3.59253 52.9838H54.2218V53.9603H3.59253V52.9838Z" fill="white"/>
</mask>
<g mask="url(#mask6_26_15)">
<g opacity="0.45">
<path d="M53.7381 53.9603H4.0762C3.8092 53.9603 3.59253 53.7477 3.59253 53.472C3.59253 53.1965 3.8092 52.9838 4.0762 52.9838H53.7381C54.0053 52.9838 54.2218 53.1965 54.2218 53.472C54.2218 53.7477 54.0053 53.9603 53.7381 53.9603Z" fill="#FFE471"/>
</g>
</g>
<path d="M32.3653 0.416443C15.5499 0.416443 1.76051 5.68201 0.433351 12.4501C0.324308 13.0065 0.758803 13.5221 1.32583 13.5221H63.4047C63.9718 13.5221 64.4062 13.0065 64.2972 12.4501C62.97 5.68201 49.1805 0.416443 32.3653 0.416443Z" fill="#F7CE26"/>
<path d="M32.3653 0.833015C15.9749 0.833015 2.12827 5.97109 0.842119 12.5305C0.804653 12.7211 0.889278 12.8594 0.943147 12.9249C1.03784 13.0399 1.17726 13.1057 1.32582 13.1057H63.4047C63.5533 13.1057 63.6927 13.0399 63.7876 12.9249C63.8413 12.8593 63.9259 12.7211 63.8884 12.5305C62.6023 5.97109 48.7555 0.833015 32.3653 0.833015ZM63.4047 13.9387H1.32582C0.927303 13.9387 0.553388 13.762 0.299886 13.4539C0.0493664 13.1497 -0.0509158 12.7547 0.0245756 12.37C1.40747 5.31795 15.3109 0 32.3653 0C49.4194 0 63.3231 5.31795 64.706 12.37C64.7815 12.7547 64.681 13.1497 64.4307 13.4539C64.1772 13.762 63.8032 13.9387 63.4047 13.9387Z" fill="black"/>
<mask id="mask7_26_15" style="mask-type:luminance" maskUnits="userSpaceOnUse" x="0" y="0" width="64" height="14">
<path d="M0.934387 0.819946H63.5645V13.2872H0.934387V0.819946Z" fill="white"/>
</mask>
<g mask="url(#mask7_26_15)">
<g opacity="0.45">
<path d="M32.2493 3.58485C47.1932 3.58485 59.6989 7.71004 62.8719 13.2873C63.3258 13.187 63.6416 12.7521 63.5478 12.2874C62.2469 5.83785 48.731 0.82019 32.2493 0.82019C15.7676 0.82019 2.2518 5.83785 0.950738 12.2874C0.857166 12.7521 1.17292 13.187 1.62662 13.2873C4.79987 7.71004 17.3053 3.58485 32.2493 3.58485Z" fill="#FFE05F"/>
</g>
</g>
<path d="M22.7445 5.4186C22.7445 5.54516 22.4181 5.64768 22.0155 5.64768C21.6131 5.64768 21.2867 5.54516 21.2867 5.4186C21.2867 5.29203 21.6131 5.18951 22.0155 5.18951C22.4181 5.18951 22.7445 5.29203 22.7445 5.4186Z" fill="#FFE05F"/>
<path d="M18.2463 6.75136C18.2463 6.87793 17.9201 6.98063 17.5175 6.98063C17.1151 6.98063 16.7887 6.87793 16.7887 6.75136C16.7887 6.62498 17.1151 6.52228 17.5175 6.52228C17.9201 6.52228 18.2463 6.62498 18.2463 6.75136Z" fill="#FFE05F"/>
<path d="M12.9153 8.75051C12.9153 8.87707 12.589 8.97978 12.1863 8.97978C11.7839 8.97978 11.4577 8.87707 11.4577 8.75051C11.4577 8.62413 11.7839 8.52142 12.1863 8.52142C12.589 8.52142 12.9153 8.62413 12.9153 8.75051Z" fill="#FFE05F"/>
<path d="M14.0815 6.75136C14.0815 6.87793 13.7553 6.98063 13.3527 6.98063C12.9502 6.98063 12.6238 6.87793 12.6238 6.75136C12.6238 6.62498 12.9502 6.52228 13.3527 6.52228C13.7553 6.52228 14.0815 6.62498 14.0815 6.75136Z" fill="#FFE05F"/>
<path d="M22.9111 8.91714C22.9111 9.04351 22.5847 9.14622 22.1821 9.14622C21.7797 9.14622 21.4533 9.04351 21.4533 8.91714C21.4533 8.79057 21.7797 8.68787 22.1821 8.68787C22.5847 8.68787 22.9111 8.79057 22.9111 8.91714Z" fill="#FFE05F"/>
<path d="M24.577 6.75136C24.577 6.87793 24.2506 6.98063 23.848 6.98063C23.4455 6.98063 23.1191 6.87793 23.1191 6.75136C23.1191 6.62498 23.4455 6.52228 23.848 6.52228C24.2506 6.52228 24.577 6.62498 24.577 6.75136Z" fill="#FFE05F"/>
<path d="M28.9086 4.41896C28.9086 4.54553 28.5822 4.64823 28.1796 4.64823C27.7771 4.64823 27.4507 4.54553 27.4507 4.41896C27.4507 4.29259 27.7771 4.18988 28.1796 4.18988C28.5822 4.18988 28.9086 4.29259 28.9086 4.41896Z" fill="#FFE05F"/>
<path d="M30.2411 8.25075C30.2411 8.37732 29.9149 8.47984 29.5123 8.47984C29.1098 8.47984 28.7834 8.37732 28.7834 8.25075C28.7834 8.12419 29.1098 8.02167 29.5123 8.02167C29.9149 8.02167 30.2411 8.12419 30.2411 8.25075Z" fill="#FFE05F"/>
<path d="M36.5717 9.08376C36.5717 9.21014 36.2455 9.31285 35.8429 9.31285C35.4405 9.31285 35.1141 9.21014 35.1141 9.08376C35.1141 8.9572 35.4405 8.85449 35.8429 8.85449C36.2455 8.85449 36.5717 8.9572 36.5717 9.08376Z" fill="#FFE05F"/>
<path d="M33.0734 4.91884C33.0734 5.04522 32.747 5.14793 32.3444 5.14793C31.9419 5.14793 31.6155 5.04522 31.6155 4.91884C31.6155 4.79228 31.9419 4.68976 32.3444 4.68976C32.747 4.68976 33.0734 4.79228 33.0734 4.91884Z" fill="#FFE05F"/>
<path d="M38.0711 6.58474C38.0711 6.7113 37.7449 6.81401 37.3423 6.81401C36.9397 6.81401 36.6135 6.7113 36.6135 6.58474C36.6135 6.45836 36.9397 6.35565 37.3423 6.35565C37.7449 6.35565 38.0711 6.45836 38.0711 6.58474Z" fill="#FFE05F"/>
<path d="M41.0699 5.08553C41.0699 5.21191 40.7437 5.31462 40.3411 5.31462C39.9386 5.31462 39.6122 5.21191 39.6122 5.08553C39.6122 4.95897 39.9386 4.85626 40.3411 4.85626C40.7437 4.85626 41.0699 4.95897 41.0699 5.08553Z" fill="#FFE05F"/>
<path d="M44.0687 8.91714C44.0687 9.04351 43.7423 9.14622 43.3397 9.14622C42.9373 9.14622 42.6111 9.04351 42.6111 8.91714C42.6111 8.79057 42.9373 8.68787 43.3397 8.68787C43.7423 8.68787 44.0687 8.79057 44.0687 8.91714Z" fill="#FFE05F"/>
<path d="M48.067 6.75136C48.067 6.87793 47.7406 6.98063 47.3379 6.98063C46.9355 6.98063 46.6093 6.87793 46.6093 6.75136C46.6093 6.62498 46.9355 6.52228 47.3379 6.52228C47.7406 6.52228 48.067 6.62498 48.067 6.75136Z" fill="#FFE05F"/>
<path d="M4.43124 28.9728V19.1345H8.19674C8.90757 19.1345 9.49833 19.2466 9.96902 19.4708C10.4429 19.6918 10.7967 19.9944 11.0305 20.3787C11.2674 20.763 11.3859 21.1986 11.3859 21.6854C11.3859 22.0857 11.309 22.4283 11.1553 22.7134C11.0017 22.9952 10.7951 23.2242 10.5358 23.4003C10.2764 23.5765 9.98663 23.703 9.66644 23.7798V23.8759C10.0155 23.8951 10.3501 24.0024 10.6702 24.1978C10.9936 24.3899 11.2578 24.6621 11.4627 25.0144C11.6677 25.3667 11.7701 25.7926 11.7701 26.2922C11.7701 26.8014 11.6468 27.2594 11.4003 27.6661C11.1537 28.0697 10.7823 28.3883 10.286 28.6221C9.78971 28.8559 9.16533 28.9728 8.41287 28.9728H4.43124ZM6.21313 27.4836H8.1295C8.77629 27.4836 9.24218 27.3603 9.52715 27.1137C9.81533 26.8639 9.95942 26.5436 9.95942 26.1529C9.95942 25.8615 9.88737 25.5989 9.74328 25.3651C9.5992 25.1281 9.39427 24.9424 9.12851 24.8079C8.86275 24.6701 8.54575 24.6013 8.17753 24.6013H6.21313V27.4836ZM6.21313 23.3187H7.97581C8.28319 23.3187 8.56016 23.2626 8.80671 23.1505C9.05326 23.0352 9.24698 22.8735 9.38787 22.6653C9.53196 22.454 9.604 22.2042 9.604 21.9159C9.604 21.5348 9.46952 21.221 9.20055 20.9744C8.93479 20.7278 8.53935 20.6045 8.01423 20.6045H6.21313V23.3187Z" fill="#555250"/>
<path d="M20.1971 19.1345H21.979V25.5621C21.979 26.2666 21.8125 26.8863 21.4795 27.4211C21.1497 27.956 20.6854 28.3739 20.0866 28.6749C19.4879 28.9728 18.7882 29.1217 17.9878 29.1217C17.1841 29.1217 16.4828 28.9728 15.8841 28.6749C15.2853 28.3739 14.821 27.956 14.4912 27.4211C14.1614 26.8863 13.9965 26.2666 13.9965 25.5621V19.1345H15.7784V25.4131C15.7784 25.8231 15.8681 26.1882 16.0474 26.5084C16.2299 26.8287 16.486 27.0801 16.8158 27.2626C17.1456 27.442 17.5363 27.5316 17.9878 27.5316C18.4392 27.5316 18.8299 27.442 19.1597 27.2626C19.4927 27.0801 19.7488 26.8287 19.9281 26.5084C20.1074 26.1882 20.1971 25.8231 20.1971 25.4131V19.1345Z" fill="#555250"/>
<path d="M24.592 28.9728V19.1345H28.2807C29.0363 19.1345 29.6703 19.2658 30.1826 19.5284C30.6981 19.791 31.0872 20.1593 31.3497 20.6333C31.6155 21.1041 31.7484 21.6533 31.7484 22.281C31.7484 22.9119 31.6139 23.4596 31.3449 23.9239C31.0792 24.3851 30.6869 24.7422 30.1682 24.9952C29.6495 25.245 29.0123 25.3699 28.2567 25.3699H25.6295V23.8903H28.0165C28.4584 23.8903 28.8202 23.8295 29.102 23.7078C29.3837 23.5829 29.5919 23.4019 29.7264 23.1649C29.864 22.9247 29.9329 22.6301 29.9329 22.281C29.9329 21.9319 29.864 21.6341 29.7264 21.3875C29.5887 21.1377 29.3789 20.9488 29.0972 20.8207C28.8154 20.6894 28.452 20.6237 28.0069 20.6237H26.3739V28.9728H24.592ZM29.6735 24.5148L32.1086 28.9728H30.1202L27.7283 24.5148H29.6735Z" fill="#555250"/>
<path d="M40.6545 22.2762C40.5744 22.0168 40.4639 21.7846 40.3231 21.5797C40.1854 21.3715 40.0189 21.1938 39.8236 21.0464C39.6314 20.8991 39.4105 20.7886 39.1607 20.715C38.911 20.6381 38.6388 20.5997 38.3442 20.5997C37.8159 20.5997 37.3452 20.7326 36.9322 20.9984C36.5191 21.2642 36.1941 21.6549 35.9572 22.1705C35.7235 22.6829 35.6066 23.3075 35.6066 24.044C35.6066 24.787 35.7235 25.4163 35.9572 25.932C36.1909 26.4476 36.5159 26.8399 36.9322 27.1089C37.3484 27.3747 37.8319 27.5076 38.3827 27.5076C38.8822 27.5076 39.3144 27.4115 39.6795 27.2194C40.0477 27.0272 40.3311 26.755 40.5296 26.4027C40.7281 26.0472 40.8274 25.6309 40.8274 25.1537L41.2308 25.2162H38.5604V23.8231H42.5516V25.0048C42.5516 25.8471 42.3723 26.5757 42.0137 27.1906C41.6551 27.8055 41.162 28.2794 40.5344 28.6125C39.9068 28.9424 39.1864 29.1073 38.3731 29.1073C37.4669 29.1073 36.6712 28.9039 35.986 28.4972C35.304 28.0873 34.7709 27.506 34.3866 26.7534C34.0056 25.9976 33.8151 25.1009 33.8151 24.0633C33.8151 23.269 33.9272 22.5597 34.1513 21.9352C34.3786 21.3107 34.6956 20.7806 35.1023 20.3451C35.5089 19.9063 35.986 19.5733 36.5335 19.3459C37.0811 19.1153 37.6766 19 38.3202 19C38.8646 19 39.3721 19.0801 39.8428 19.2402C40.3135 19.3971 40.7313 19.6213 41.0963 19.9127C41.4646 20.2042 41.7671 20.55 42.0041 20.9504C42.241 21.3507 42.3963 21.7926 42.47 22.2762H40.6545Z" fill="#555250"/>
<path d="M44.9509 28.9728V19.1345H51.3484V20.6285H46.7328V23.2994H51.017V24.7934H46.7328V27.4788H51.3868V28.9728H44.9509Z" fill="#555250"/>
<path d="M53.8426 28.9728V19.1345H57.5312C58.2869 19.1345 58.9209 19.2658 59.4332 19.5284C59.9487 19.791 60.3377 20.1593 60.6003 20.6333C60.8661 21.1041 60.999 21.6533 60.999 22.281C60.999 22.9119 60.8645 23.4596 60.5955 23.9239C60.3297 24.3851 59.9375 24.7422 59.4188 24.9952C58.9001 25.245 58.2629 25.3699 57.5072 25.3699H54.88V23.8903H57.2671C57.7089 23.8903 58.0708 23.8295 58.3525 23.7078C58.6343 23.5829 58.8424 23.4019 58.9769 23.1649C59.1146 22.9247 59.1834 22.6301 59.1834 22.281C59.1834 21.9319 59.1146 21.6341 58.9769 21.3875C58.8392 21.1377 58.6295 20.9488 58.3477 20.8207C58.066 20.6894 57.7025 20.6237 57.2575 20.6237H55.6245V28.9728H53.8426ZM58.9241 24.5148L61.3592 28.9728H59.3708L56.9789 24.5148H58.9241Z" fill="#555250"/>
<path d="M9.74536 36.9779C9.65155 36.674 9.5221 36.4019 9.357 36.1617C9.19565 35.9177 9.00053 35.7094 8.77164 35.5368C8.5465 35.3642 8.28759 35.2347 7.99492 35.1484C7.70224 35.0583 7.38329 35.0133 7.03808 35.0133C6.41895 35.0133 5.86737 35.169 5.38332 35.4805C4.89928 35.792 4.51842 36.2499 4.24075 36.8541C3.96683 37.4546 3.82987 38.1864 3.82987 39.0496C3.82987 39.9203 3.96683 40.6578 4.24075 41.262C4.51467 41.8662 4.89552 42.326 5.38332 42.6412C5.87112 42.9527 6.43772 43.1085 7.08311 43.1085C7.66847 43.1085 8.17502 42.9959 8.60279 42.7707C9.0343 42.5455 9.36638 42.2265 9.59902 41.8137C9.83166 41.3971 9.94798 40.9092 9.94798 40.35L10.4208 40.4232H7.29136V38.7907H11.9686V40.1755C11.9686 41.1625 11.7585 42.0164 11.3382 42.7369C10.9179 43.4575 10.3401 44.013 9.60465 44.4033C8.8692 44.7898 8.02493 44.9831 7.07185 44.9831C6.00995 44.9831 5.07751 44.7448 4.27452 44.2682C3.47528 43.7878 2.85053 43.1066 2.40025 42.2247C1.95373 41.3389 1.73047 40.2881 1.73047 39.0721C1.73047 38.1414 1.8618 37.3101 2.12446 36.5783C2.39087 35.8464 2.76235 35.2253 3.23889 34.7149C3.71543 34.2007 4.27452 33.8104 4.91616 33.5439C5.5578 33.2737 6.25573 33.1386 7.00994 33.1386C7.64783 33.1386 8.24257 33.2324 8.79415 33.4201C9.34574 33.604 9.83541 33.8667 10.2632 34.2082C10.6947 34.5498 11.0493 34.9551 11.3269 35.4242C11.6046 35.8933 11.7866 36.4112 11.8729 36.9779H9.74536Z" fill="#555250"/>
<path d="M14.7803 44.8255V33.2962H22.2773V35.047H16.8684V38.177H21.889V39.9278H16.8684V43.0747H22.3224V44.8255H14.7803Z" fill="#555250"/>
<path d="M34.6728 33.2962V44.8255H32.8155L27.384 36.9723H27.2883V44.8255H25.2002V33.2962H27.0688L32.4946 41.155H32.596V33.2962H34.6728Z" fill="#555250"/>
<path d="M39.8288 33.2962V44.8255H37.7406V33.2962H39.8288Z" fill="#555250"/>
<path d="M50.1488 33.2962H52.2369V40.8285C52.2369 41.6542 52.0418 42.3804 51.6516 43.0072C51.2651 43.6339 50.721 44.1237 50.0193 44.4765C49.3176 44.8255 48.4978 45 47.5597 45C46.6179 45 45.7961 44.8255 45.0944 44.4765C44.3928 44.1237 43.8487 43.6339 43.4622 43.0072C43.0757 42.3804 42.8825 41.6542 42.8825 40.8285V33.2962H44.9706V40.654C44.9706 41.1344 45.0757 41.5622 45.2858 41.9375C45.4997 42.3128 45.7999 42.6075 46.1864 42.8214C46.5728 43.0315 47.0306 43.1366 47.5597 43.1366C48.0888 43.1366 48.5466 43.0315 48.933 42.8214C49.3233 42.6075 49.6235 42.3128 49.8336 41.9375C50.0437 41.5622 50.1488 41.1344 50.1488 40.654V33.2962Z" fill="#555250"/>
<path d="M61.5635 36.4657C61.511 35.974 61.2896 35.5912 60.8994 35.3172C60.5129 35.0433 60.0101 34.9063 59.391 34.9063C58.9557 34.9063 58.5823 34.972 58.2709 35.1033C57.9595 35.2347 57.7212 35.4129 57.5561 35.6381C57.391 35.8633 57.3066 36.1204 57.3028 36.4094C57.3028 36.6496 57.3572 36.8579 57.466 37.0342C57.5786 37.2106 57.7306 37.3608 57.9219 37.4846C58.1133 37.6047 58.3253 37.706 58.5579 37.7886C58.7906 37.8712 59.0251 37.9406 59.2615 37.9969L60.3422 38.2671C60.7774 38.3684 61.1958 38.5054 61.5973 38.6781C62.0025 38.8507 62.3646 39.0684 62.6836 39.3311C63.0063 39.5938 63.2614 39.9109 63.4491 40.2825C63.6367 40.654 63.7305 41.0894 63.7305 41.5885C63.7305 42.2641 63.5579 42.8589 63.2127 43.3731C62.8674 43.8835 62.3684 44.2832 61.7155 44.5722C61.0663 44.8574 60.2802 45 59.3572 45C58.4604 45 57.6818 44.8611 57.0214 44.5834C56.3647 44.3057 55.8507 43.9004 55.4792 43.3674C55.1115 42.8345 54.9126 42.1852 54.8826 41.4196H56.937C56.967 41.8212 57.0908 42.1552 57.3084 42.4217C57.5261 42.6881 57.8094 42.8871 58.1583 43.0184C58.511 43.1498 58.905 43.2154 59.3403 43.2154C59.7943 43.2154 60.1921 43.1479 60.5335 43.0128C60.8787 42.8739 61.1489 42.6825 61.344 42.4386C61.5391 42.1909 61.6386 41.9019 61.6423 41.5716C61.6386 41.2714 61.5504 41.0237 61.3778 40.8285C61.2052 40.6296 60.9632 40.4645 60.6517 40.3331C60.344 40.198 59.9838 40.0779 59.5711 39.9728L58.2596 39.6351C57.3103 39.3911 56.5598 39.0215 56.0083 38.5261C55.4604 38.0269 55.1865 37.3645 55.1865 36.5388C55.1865 35.8596 55.3704 35.2647 55.7381 34.7543C56.1096 34.2439 56.6143 33.8479 57.2521 33.5665C57.89 33.2812 58.6123 33.1386 59.4191 33.1386C60.2371 33.1386 60.9538 33.2812 61.5692 33.5665C62.1883 33.8479 62.6742 34.2401 63.0269 34.743C63.3796 35.2422 63.5616 35.8164 63.5729 36.4657H61.5635Z" fill="#555250"/>
</svg>
