<svg width="357" height="37" viewBox="0 0 357 37" fill="none" xmlns="http://www.w3.org/2000/svg">
<path d="M123.55 25.6377L122.91 25.7073L122.431 26.1367C120.428 27.932 117.333 27.7911 113.403 25.8206C109.595 23.9109 105.782 20.6219 103.272 17.7506L102.674 17.067H101.766H77.054H50.689H49.7364L49.1361 17.8066L42.1891 26.3656L42.1889 26.3659C35.115 35.0845 21.5741 34.2985 15.5554 24.819L15.5553 24.8188L15.2473 24.3338C15.2473 24.3338 15.2473 24.3338 15.2473 24.3338C12.9771 20.7589 9.70113 18.1046 6.08507 16.2248C3.65537 14.9607 2 12.4222 2 9.534C2 5.39443 5.3947 2 9.533 2H346.863C351.001 2 354.396 5.39444 354.396 9.534C354.396 13.6724 351.001 17.067 346.863 17.067H212.766H212.19L211.702 17.3738L195.541 27.533L174.584 34.3564C166.66 34.2756 157.412 31.1496 148.946 28.2878C148.567 28.1595 148.189 28.0317 147.813 27.9048C143.465 26.4377 139.317 25.0736 135.875 24.4227C134.15 24.0963 132.493 23.9266 131.01 24.0514C129.753 24.1572 128.504 24.4855 127.446 25.2139L123.55 25.6377Z" fill="#FFF5E0" stroke="black" stroke-width="4"/>
</svg>
