<svg width="64" height="47" viewBox="0 0 64 47" fill="none" xmlns="http://www.w3.org/2000/svg">
<mask id="mask0_29_344" style="mask-type:luminance" maskUnits="userSpaceOnUse" x="1" y="38" width="2" height="4">
<path d="M1.91995 38.035H2.31404V41.4743H1.91995V38.035Z" fill="white"/>
</mask>
<g mask="url(#mask0_29_344)">
<g opacity="0.45">
<path d="M2.11675 38.035C2.11675 38.035 2.13392 38.0888 2.15582 38.1828C2.17825 38.2768 2.20524 38.4111 2.23047 38.5722C2.28076 38.8948 2.31371 39.3246 2.31388 39.7547C2.31406 40.1844 2.28164 40.6145 2.231 40.9368C2.20576 41.0979 2.1786 41.2322 2.156 41.3263C2.1341 41.4203 2.11675 41.4743 2.11675 41.4743C2.11675 41.4743 2.09958 41.4203 2.07767 41.3263C2.05507 41.2322 2.02791 41.0979 2.00267 40.9368C1.95203 40.6145 1.91962 40.1844 1.91962 39.7547C1.91997 39.3246 1.95273 38.8948 2.0032 38.5722C2.02843 38.4111 2.05542 38.2768 2.07785 38.1828C2.09975 38.0888 2.11675 38.035 2.11675 38.035Z" fill="#FFF5CA"/>
</g>
</g>
<mask id="mask1_29_344" style="mask-type:luminance" maskUnits="userSpaceOnUse" x="2" y="39" width="3" height="3">
<path d="M2.82449 39.1027H4.11733V41.8198H2.82449V39.1027Z" fill="white"/>
</mask>
<g mask="url(#mask1_29_344)">
<g opacity="0.45">
<path d="M4.11733 39.1027C4.11733 39.1027 4.11067 39.1624 4.09262 39.2584C4.0751 39.3553 4.04583 39.4881 4.00518 39.6407C3.9237 39.9459 3.78807 40.3185 3.62669 40.6583C3.46513 40.998 3.27781 41.3052 3.11677 41.5095C3.03617 41.6115 2.96415 41.6904 2.91088 41.7424C2.85814 41.7947 2.82449 41.8198 2.82449 41.8198C2.82449 41.8198 2.83098 41.7601 2.84903 41.6638C2.86655 41.5669 2.89546 41.4338 2.93611 41.2809C3.01742 40.9757 3.1534 40.6037 3.31513 40.2642C3.47687 39.9248 3.66454 39.6179 3.8254 39.4136C3.906 39.3115 3.97785 39.2324 4.03094 39.1807C4.08368 39.1281 4.11733 39.1027 4.11733 39.1027Z" fill="#FFF5CA"/>
</g>
</g>
<mask id="mask2_29_344" style="mask-type:luminance" maskUnits="userSpaceOnUse" x="3" y="42" width="3" height="2">
<path d="M3.29239 42.6195H5.39408V43.2982H3.29239V42.6195Z" fill="white"/>
</mask>
<g mask="url(#mask2_29_344)">
<g opacity="0.45">
<path d="M5.39408 42.8139C5.39408 42.8139 5.36254 42.8462 5.30699 42.8897C5.25144 42.934 5.17171 42.9891 5.07516 43.0437C4.88241 43.1525 4.62237 43.242 4.3597 43.2786C4.09721 43.3151 3.83174 43.2983 3.6304 43.2434C3.52982 43.2157 3.44536 43.1828 3.38596 43.154C3.32673 43.126 3.29239 43.1028 3.29239 43.1028C3.29239 43.1028 3.32393 43.0703 3.37948 43.0265C3.43502 42.982 3.51475 42.9265 3.6113 42.8719C3.80388 42.7628 4.06392 42.6736 4.32676 42.6382C4.58943 42.6022 4.85472 42.6193 5.05606 42.6742C5.15664 42.7016 5.2411 42.7342 5.30051 42.7628C5.35973 42.7908 5.39408 42.8139 5.39408 42.8139Z" fill="#FFF5CA"/>
</g>
</g>
<mask id="mask3_29_344" style="mask-type:luminance" maskUnits="userSpaceOnUse" x="3" y="44" width="2" height="3">
<path d="M3.0148 44.5627H4.53841V46.9407H3.0148V44.5627Z" fill="white"/>
</mask>
<g mask="url(#mask3_29_344)">
<g opacity="0.45">
<path d="M4.53841 46.9407C4.53841 46.9407 4.50284 46.9239 4.44607 46.8844C4.38894 46.8459 4.31061 46.785 4.22177 46.703C4.04409 46.5395 3.83101 46.2809 3.64037 45.984C3.44972 45.6869 3.28185 45.3514 3.17391 45.0688C3.11994 44.9276 3.07911 44.8028 3.05318 44.7113C3.02672 44.6202 3.0148 44.5627 3.0148 44.5627C3.0148 44.5627 3.05055 44.5796 3.10732 44.6188C3.16462 44.6573 3.24295 44.7182 3.33179 44.7996C3.50947 44.9631 3.72255 45.222 3.91285 45.5197C4.10314 45.8172 4.27084 46.1529 4.37895 46.4352C4.43292 46.5764 4.47375 46.701 4.49986 46.7927C4.5265 46.8836 4.53841 46.9407 4.53841 46.9407Z" fill="#FFF5CA"/>
</g>
</g>
<path d="M60.7056 32.7694V32.8662C60.7056 33.3134 60.4832 33.6763 60.2088 33.6763H3.56907C3.29483 33.6763 3.07229 33.3134 3.07229 32.8662C3.07229 32.139 2.53487 31.7873 2.21893 32.3005C1.49314 33.4797 1.03632 35.1036 1.03632 36.8907V38.762C1.03632 42.8476 3.08631 46.1903 5.59173 46.1903H58.3426C60.8482 46.1903 62.8982 42.8476 62.8982 38.762V36.8907C62.8982 35.0305 62.3485 33.3469 61.5297 32.1579C61.2113 31.6953 60.7056 32.0739 60.7056 32.7694Z" fill="#FFE787"/>
<path d="M2.57393 32.6959C2.55009 32.6959 2.52223 32.7091 2.49525 32.7528C1.80695 33.8712 1.42793 35.3402 1.42793 36.8907V38.762C1.42793 42.5059 3.29569 45.5519 5.59171 45.5519H58.3426C60.6386 45.5519 62.5066 42.5059 62.5066 38.762V36.8907C62.5066 35.3279 62.0555 33.7766 61.2693 32.6345C61.2379 32.5891 61.2013 32.5802 61.1615 32.6096C61.1373 32.6274 61.097 32.6714 61.097 32.7694V32.8662C61.097 33.6649 60.6987 34.3147 60.2088 34.3147H3.56905C3.07928 34.3147 2.68081 33.6649 2.68081 32.8662C2.68081 32.7914 2.65979 32.7388 2.61843 32.7108C2.60739 32.7034 2.5918 32.6959 2.57393 32.6959ZM58.3426 46.8286H5.59171C2.8641 46.8286 0.644836 43.2102 0.644836 38.762V36.8907C0.644836 34.9985 1.10569 33.2077 1.94258 31.8481C2.20051 31.4292 2.58356 31.3052 2.91877 31.5312C3.25504 31.7593 3.46391 32.2707 3.46391 32.8662C3.46391 32.9608 3.51105 33.0377 3.56905 33.0377H60.2088C60.2666 33.0377 60.3139 32.9608 60.3139 32.8662V32.7694C60.3139 32.1902 60.5158 31.6824 60.841 31.4444C61.1633 31.2089 61.5272 31.2992 61.7901 31.681C62.743 33.0648 63.2897 34.9639 63.2897 36.8907V38.762C63.2897 43.2099 61.0704 46.8286 58.3426 46.8286Z" fill="black"/>
<mask id="mask4_29_344" style="mask-type:luminance" maskUnits="userSpaceOnUse" x="57" y="34" width="6" height="12">
<path d="M57.9258 34.6335H62.0545V45.041H57.9258V34.6335Z" fill="white"/>
</mask>
<g mask="url(#mask4_29_344)">
<g opacity="0.45">
<path d="M58.3949 45.0408C58.1617 45.0408 57.9593 44.7576 57.9293 44.3707C57.8969 43.9507 58.0791 43.5675 58.3365 43.5143C59.2482 43.3269 59.9437 42.708 60.4042 41.675C61.453 39.3216 61.0314 35.5809 61.027 35.5432C60.9785 35.1274 61.1456 34.7265 61.4006 34.6471C61.6561 34.5671 61.9014 34.8408 61.9503 35.2566C61.9711 35.4363 62.4497 39.6922 61.1644 42.5762C60.5451 43.965 59.6336 44.7922 58.4545 45.0348C58.4343 45.0388 58.4145 45.0408 58.3949 45.0408Z" fill="#FFF5CA"/>
</g>
</g>
<mask id="mask5_29_344" style="mask-type:luminance" maskUnits="userSpaceOnUse" x="39" y="43" width="18" height="3">
<path d="M39.9153 43.3997H56.5162V45.1141H39.9153V43.3997Z" fill="white"/>
</mask>
<g mask="url(#mask5_29_344)">
<g opacity="0.45">
<path d="M56.0464 45.1141H40.3852C40.1257 45.1141 39.9153 44.6804 39.9153 44.2569C39.9153 43.8337 40.1257 43.3997 40.3852 43.3997H56.0464C56.3059 43.3997 56.5162 43.8337 56.5162 44.2569C56.5162 44.6804 56.3059 45.1141 56.0464 45.1141Z" fill="#FFF5CA"/>
</g>
</g>
<mask id="mask6_29_344" style="mask-type:luminance" maskUnits="userSpaceOnUse" x="3" y="35" width="50" height="3">
<path d="M3.42484 35.8988H52.6009V37.399H3.42484V35.8988Z" fill="white"/>
</mask>
<g mask="url(#mask6_29_344)">
<g opacity="0.45">
<path d="M52.1311 37.399H3.89462C3.63528 37.399 3.42484 37.0724 3.42484 36.6489C3.42484 36.2257 3.63528 35.8988 3.89462 35.8988H52.1311C52.3906 35.8988 52.6009 36.2257 52.6009 36.6489C52.6009 37.0724 52.3906 37.399 52.1311 37.399Z" fill="#FFF6CE"/>
</g>
</g>
<path d="M31.7298 0.697632C15.9221 0.697632 2.95908 8.76966 1.71146 19.1451C1.60895 19.998 2.0174 20.7884 2.55045 20.7884H60.9092C61.4422 20.7884 61.8507 19.998 61.7482 19.1451C60.5005 8.76966 47.5373 0.697632 31.7298 0.697632Z" fill="#FFE787"/>
<path d="M31.7298 1.33632C16.3216 1.33632 3.30478 9.2129 2.0957 19.2683C2.06048 19.5606 2.14003 19.7726 2.19067 19.8729C2.27969 20.0492 2.41076 20.1501 2.55042 20.1501H60.9092C61.0488 20.1501 61.1799 20.0492 61.2691 19.8729C61.3195 19.7723 61.3991 19.5606 61.3639 19.2683C60.1548 9.2129 47.1378 1.33632 31.7298 1.33632ZM60.9092 21.4271H2.55042C2.17578 21.4271 1.82427 21.1562 1.58596 20.6839C1.35045 20.2175 1.25618 19.612 1.32715 19.0223C2.62717 8.21165 15.6974 0.0593262 31.7298 0.0593262C47.762 0.0593262 60.8324 8.21165 62.1324 19.0223C62.2034 19.612 62.1089 20.2175 61.8736 20.6839C61.6353 21.1562 61.2838 21.4271 60.9092 21.4271Z" fill="black"/>
<mask id="mask7_29_344" style="mask-type:luminance" maskUnits="userSpaceOnUse" x="2" y="1" width="60" height="20">
<path d="M2.18246 1.31628H61.0594V20.4284H2.18246V1.31628Z" fill="white"/>
</mask>
<g mask="url(#mask7_29_344)">
<g opacity="0.45">
<path d="M31.6207 5.55495C45.6691 5.55495 57.4253 11.8788 60.4082 20.4286C60.8349 20.2749 61.1317 19.6082 61.0436 18.8958C59.8207 9.00876 47.1147 1.31677 31.6207 1.31677C16.1266 1.31677 3.42083 9.00876 2.19774 18.8958C2.10977 19.6082 2.40661 20.2749 2.83311 20.4286C5.8162 11.8788 17.5723 5.55495 31.6207 5.55495Z" fill="#FFF5CA"/>
</g>
</g>
<path d="M22.6856 8.36595C22.6856 8.55997 22.3788 8.71713 22.0003 8.71713C21.6219 8.71713 21.3151 8.55997 21.3151 8.36595C21.3151 8.17193 21.6219 8.01477 22.0003 8.01477C22.3788 8.01477 22.6856 8.17193 22.6856 8.36595Z" fill="#FFE05F"/>
<path d="M18.4569 10.4089C18.4569 10.6029 18.1503 10.7604 17.7718 10.7604C17.3935 10.7604 17.0866 10.6029 17.0866 10.4089C17.0866 10.2152 17.3935 10.0577 17.7718 10.0577C18.1503 10.0577 18.4569 10.2152 18.4569 10.4089Z" fill="#FFE05F"/>
<path d="M13.4455 13.4736C13.4455 13.6676 13.1386 13.8251 12.7601 13.8251C12.3818 13.8251 12.0752 13.6676 12.0752 13.4736C12.0752 13.2799 12.3818 13.1224 12.7601 13.1224C13.1386 13.1224 13.4455 13.2799 13.4455 13.4736Z" fill="#FFE05F"/>
<path d="M14.5417 10.4089C14.5417 10.6029 14.2351 10.7604 13.8566 10.7604C13.4782 10.7604 13.1714 10.6029 13.1714 10.4089C13.1714 10.2152 13.4782 10.0577 13.8566 10.0577C14.2351 10.0577 14.5417 10.2152 14.5417 10.4089Z" fill="#FFE05F"/>
<path d="M22.8423 13.729C22.8423 13.9228 22.5354 14.0802 22.1569 14.0802C21.7786 14.0802 21.4718 13.9228 21.4718 13.729C21.4718 13.535 21.7786 13.3776 22.1569 13.3776C22.5354 13.3776 22.8423 13.535 22.8423 13.729Z" fill="#FFE05F"/>
<path d="M24.4082 10.4089C24.4082 10.6029 24.1014 10.7604 23.7229 10.7604C23.3446 10.7604 23.0378 10.6029 23.0378 10.4089C23.0378 10.2152 23.3446 10.0577 23.7229 10.0577C24.1014 10.0577 24.4082 10.2152 24.4082 10.4089Z" fill="#FFE05F"/>
<path d="M28.4802 6.83348C28.4802 7.0275 28.1734 7.18495 27.7949 7.18495C27.4166 7.18495 27.1098 7.0275 27.1098 6.83348C27.1098 6.63975 27.4166 6.4823 27.7949 6.4823C28.1734 6.4823 28.4802 6.63975 28.4802 6.83348Z" fill="#FFE05F"/>
<path d="M29.7329 12.7075C29.7329 12.9015 29.4262 13.0587 29.0478 13.0587C28.6694 13.0587 28.3626 12.9015 28.3626 12.7075C28.3626 12.5135 28.6694 12.3563 29.0478 12.3563C29.4262 12.3563 29.7329 12.5135 29.7329 12.7075Z" fill="#FFE05F"/>
<path d="M35.6842 13.9845C35.6842 14.1783 35.3775 14.3357 34.999 14.3357C34.6207 14.3357 34.3139 14.1783 34.3139 13.9845C34.3139 13.7905 34.6207 13.6331 34.999 13.6331C35.3775 13.6331 35.6842 13.7905 35.6842 13.9845Z" fill="#FFE05F"/>
<path d="M32.3955 7.59984C32.3955 7.79357 32.0887 7.95102 31.7102 7.95102C31.3318 7.95102 31.025 7.79357 31.025 7.59984C31.025 7.40582 31.3318 7.24866 31.7102 7.24866C32.0887 7.24866 32.3955 7.40582 32.3955 7.59984Z" fill="#FFE05F"/>
<path d="M37.0937 10.1535C37.0937 10.3476 36.7871 10.505 36.4086 10.505C36.0301 10.505 35.7234 10.3476 35.7234 10.1535C35.7234 9.95981 36.0301 9.80237 36.4086 9.80237C36.7871 9.80237 37.0937 9.95981 37.0937 10.1535Z" fill="#FFE05F"/>
<path d="M39.9128 7.85525C39.9128 8.04899 39.6062 8.20643 39.2277 8.20643C38.8494 8.20643 38.5425 8.04899 38.5425 7.85525C38.5425 7.66123 38.8494 7.50378 39.2277 7.50378C39.6062 7.50378 39.9128 7.66123 39.9128 7.85525Z" fill="#FFE05F"/>
<path d="M42.7319 13.729C42.7319 13.9228 42.4251 14.0802 42.0466 14.0802C41.6683 14.0802 41.3616 13.9228 41.3616 13.729C41.3616 13.535 41.6683 13.3776 42.0466 13.3776C42.4251 13.3776 42.7319 13.535 42.7319 13.729Z" fill="#FFE05F"/>
<path d="M46.4905 10.4089C46.4905 10.6029 46.1837 10.7604 45.8052 10.7604C45.4269 10.7604 45.1202 10.6029 45.1202 10.4089C45.1202 10.2152 45.4269 10.0577 45.8052 10.0577C46.1837 10.0577 46.4905 10.2152 46.4905 10.4089Z" fill="#FFE05F"/>
</svg>
