<svg width="66" height="67" viewBox="0 0 66 67" fill="none" xmlns="http://www.w3.org/2000/svg">
<mask id="mask0_32_351" style="mask-type:alpha" maskUnits="userSpaceOnUse" x="0" y="0" width="66" height="67">
<circle cx="33" cy="33.5" r="33" fill="#D9D9D9"/>
</mask>
<g mask="url(#mask0_32_351)">
<path d="M49.1719 48.5002C57.3929 38.84 61.2797 29.3923 57.9553 26.0681C54.6649 22.779 45.3751 26.5493 35.8169 34.6005C35.188 39.7613 33.489 44.8055 32.0778 48.5004H49.1719V48.5002Z" fill="#FEC24C"/>
<path d="M50.5697 35.4685C50.1917 35.4685 49.8139 35.3239 49.5261 35.0359C48.9489 34.4587 48.9489 33.5257 49.5261 32.9485L51.6135 30.8611C52.1907 30.2839 53.1237 30.2839 53.7009 30.8611C54.2781 31.4383 54.2781 32.3713 53.7009 32.9485L51.6135 35.0359C51.3255 35.3237 50.9477 35.4685 50.5697 35.4685Z" fill="#BC8D2F"/>
<path d="M46.395 43.8194C46.017 43.8194 45.6392 43.6748 45.3513 43.3869C44.7742 42.8097 44.7742 41.8766 45.3513 41.2995L47.4387 39.2121C48.0159 38.6349 48.949 38.6349 49.5261 39.2121C50.1033 39.7892 50.1033 40.7223 49.5261 41.2995L47.4387 43.3869C47.1507 43.6748 46.7729 43.8194 46.395 43.8194Z" fill="#BC8D2F"/>
<path d="M42.2192 37.5572C41.8413 37.5572 41.4635 37.4127 41.1756 37.1247C40.5985 36.549 40.5985 35.6144 41.1741 35.0373L43.2629 32.9485C43.8385 32.3713 44.7731 32.3713 45.3503 32.9485C45.9274 33.5242 45.9274 34.4587 45.3518 35.0359L43.2644 37.1247C42.975 37.4125 42.5971 37.5572 42.2192 37.5572Z" fill="#BC8D2F"/>
<path d="M39.4681 46.5702C39.0902 46.5702 38.7123 46.4256 38.4245 46.1376C37.8473 45.5604 37.8473 44.6274 38.4245 44.0502L40.1324 42.3436C40.708 41.7665 41.644 41.7665 42.2198 42.3436C42.7954 42.9193 42.7954 43.8539 42.2198 44.431L40.5119 46.1376C40.2239 46.4256 39.8459 46.5702 39.4681 46.5702Z" fill="#BC8D2F"/>
<path d="M32.0762 48.5003C34.2861 42.7224 37.2149 33.6395 35.6131 25.9855C35.6131 25.9855 33.325 33.5982 28.7282 37.9573C25.7552 40.7769 22.7836 43.3528 21.2585 48.5003H32.0762Z" fill="#659C35"/>
<path d="M17.8094 29.3099C16.9946 29.3099 16.3333 28.65 16.3333 27.8337C16.3333 24.2436 19.764 19.3633 21.1944 17.9329C21.7716 17.3557 22.7047 17.3557 23.2818 17.9329C23.859 18.5101 23.859 19.4431 23.2818 20.0203C21.9104 21.3932 19.2858 25.5029 19.2858 27.8337C19.2856 28.65 18.6244 29.3099 17.8094 29.3099Z" fill="#A4E869"/>
<path d="M17.8094 29.3099C16.9946 29.3099 16.3332 28.6501 16.3332 27.8337C16.3332 26.9864 15.111 24.4887 13.738 22.8914C13.2066 22.2729 13.276 21.3414 13.8945 20.8099C14.5131 20.277 15.4446 20.3493 15.976 20.9664C17.3105 22.518 19.2856 25.7744 19.2856 27.8337C19.2856 28.6501 18.6244 29.3099 17.8094 29.3099Z" fill="#A4E869"/>
<path d="M28.729 37.9571C29.0168 37.684 29.2944 37.3991 29.5646 37.1038C29.0184 31.2344 23.9684 27.8333 17.8096 27.8333C11.2878 27.8333 6 31.6449 6 38.1666C6 41.144 7.11013 45.087 8.92722 48.5H21.2579C22.7829 43.3539 25.756 40.7766 28.729 37.9571Z" fill="#D7172A"/>
<path d="M11.9047 38.167C11.0898 38.167 10.4285 37.5072 10.4285 36.6908V35.2146C10.4285 34.3983 11.0898 33.7384 11.9047 33.7384C12.7195 33.7384 13.3809 34.3983 13.3809 35.2146V36.6908C13.3809 37.5072 12.7197 38.167 11.9047 38.167Z" fill="#994530"/>
<path d="M16.3333 44.0718C15.5184 44.0718 14.8571 43.4119 14.8571 42.5956V41.1194C14.8571 40.303 15.5184 39.6432 16.3333 39.6432C17.1481 39.6432 17.8095 40.303 17.8095 41.1194V42.5956C17.8095 43.4119 17.1482 44.0718 16.3333 44.0718Z" fill="#994530"/>
<path d="M20.7618 38.167C19.947 38.167 19.2856 37.5072 19.2856 36.6908V35.2146C19.2856 34.3983 19.947 33.7384 20.7618 33.7384C21.5766 33.7384 22.238 34.3983 22.238 35.2146V36.6908C22.238 37.5072 21.5768 38.167 20.7618 38.167Z" fill="#994530"/>
</g>
</svg>
