<svg width="349" height="41" viewBox="0 0 349 41" fill="none" xmlns="http://www.w3.org/2000/svg">
<path d="M337.092 23.796L337.073 23.904C335.074 35.339 322.012 40.979 312.319 34.593L289.429 19.513L277.612 31.049C270.001 38.479 258.121 39.281 249.58 32.943L231.483 19.513L210.734 34.504C202.945 40.131 192.418 40.098 184.664 34.422L164.302 19.513L151.933 30.028C145.119 35.819 135.324 36.487 127.786 31.675L108.74 19.513L91.1581 29.251C84.0621 33.181 75.4101 33.031 68.4551 28.858L52.8801 19.513L42.0851 26.8C34.4101 31.981 24.2021 31.312 17.2691 25.174L15.6591 23.75C13.2661 21.631 10.4611 20.082 7.51913 18.832C4.42013 17.515 2.23413 14.437 2.23413 10.874C2.23413 6.12201 6.12113 2.23401 10.8731 2.23401H337.84C342.592 2.23401 346.48 6.12201 346.48 10.874C346.48 14.437 344.293 17.515 341.195 18.832C339.081 19.73 337.487 21.533 337.092 23.796Z" fill="#39B54A"/>
<path d="M164.2 16.669L185.985 32.619C192.978 37.738 202.398 37.769 209.426 32.693L231.501 16.744L250.912 31.149C258.614 36.865 269.188 36.15 276.052 29.45L289.156 16.657L313.548 32.727C317.47 35.311 322.384 35.744 326.696 33.88C331.008 32.019 334.063 28.146 334.872 23.52L334.892 23.406C335.405 20.481 337.435 18.003 340.321 16.776C342.706 15.763 344.246 13.446 344.246 10.874C344.246 7.342 341.373 4.469 337.841 4.469H10.874C7.342 4.469 4.468 7.342 4.468 10.874C4.468 13.446 6.009 15.763 8.393 16.776C11.963 18.292 14.824 20.026 17.141 22.077L18.75 23.503C24.922 28.964 34.003 29.561 40.835 24.949L52.81 16.865L69.604 26.943C75.856 30.693 83.7 30.83 90.075 27.297L108.821 16.915L128.989 29.792C135.743 34.103 144.382 33.514 150.486 28.325L164.2 16.669ZM197.756 40.951C192.701 40.952 187.648 39.376 183.345 36.224L164.406 22.358L153.38 31.73C145.771 38.197 135.002 38.934 126.585 33.559L108.659 22.113L92.241 31.206C84.474 35.509 74.918 35.342 67.306 30.775L52.951 22.162L43.336 28.653C34.813 34.405 23.487 33.662 15.787 26.848L14.179 25.423C12.229 23.697 9.765 22.213 6.646 20.888C2.608 19.173 0 15.242 0 10.874C0 4.878 4.878 0 10.874 0H337.841C343.837 0 348.715 4.878 348.715 10.874C348.715 15.242 346.106 19.174 342.069 20.888C340.581 21.521 339.543 22.752 339.293 24.181L339.274 24.295C338.206 30.403 334.165 35.522 328.468 37.983C322.768 40.443 316.272 39.873 311.09 36.459L289.703 22.369L279.173 32.648C270.729 40.889 257.724 41.768 248.248 34.738L231.466 22.283L212.043 36.315C207.764 39.406 202.759 40.951 197.756 40.951Z" fill="black"/>
</svg>
