<svg width="358" height="55" viewBox="0 0 358 55" fill="none" xmlns="http://www.w3.org/2000/svg">
<mask id="mask0_43_745" style="mask-type:luminance" maskUnits="userSpaceOnUse" x="7" y="23" width="3" height="13">
<path d="M7.27698 23.5176H9.52598V35.5536H7.27698V23.5176Z" fill="white"/>
</mask>
<g mask="url(#mask0_43_745)">
<g opacity="0.45">
<path d="M8.401 23.5176C8.401 23.5176 8.499 23.7056 8.624 24.0346C8.752 24.3636 8.906 24.8336 9.05 25.3976C9.337 26.5266 9.525 28.0306 9.526 29.5356C9.527 31.0396 9.342 32.5446 9.053 33.6726C8.909 34.2366 8.754 34.7066 8.625 35.0356C8.5 35.3646 8.401 35.5536 8.401 35.5536C8.401 35.5536 8.303 35.3646 8.178 35.0356C8.049 34.7066 7.894 34.2366 7.75 33.6726C7.461 32.5446 7.276 31.0396 7.276 29.5356C7.278 28.0306 7.465 26.5266 7.753 25.3976C7.897 24.8336 8.051 24.3636 8.179 24.0346C8.304 23.7056 8.401 23.5176 8.401 23.5176Z" fill="#FFE05F"/>
</g>
</g>
<mask id="mask1_43_745" style="mask-type:luminance" maskUnits="userSpaceOnUse" x="12" y="27" width="8" height="10">
<path d="M12.439 27.2535H19.817V36.7625H12.439V27.2535Z" fill="white"/>
</mask>
<g mask="url(#mask1_43_745)">
<g opacity="0.45">
<path d="M19.817 27.2535C19.817 27.2535 19.779 27.4626 19.676 27.7986C19.576 28.1376 19.409 28.6026 19.177 29.1366C18.712 30.2046 17.938 31.5085 17.017 32.6975C16.095 33.8865 15.026 34.9615 14.107 35.6765C13.647 36.0335 13.236 36.3095 12.932 36.4915C12.631 36.6745 12.439 36.7625 12.439 36.7625C12.439 36.7625 12.476 36.5536 12.579 36.2166C12.679 35.8776 12.844 35.4115 13.076 34.8765C13.54 33.8085 14.316 32.5065 15.239 31.3185C16.162 30.1305 17.233 29.0566 18.151 28.3416C18.611 27.9846 19.021 27.7076 19.324 27.5266C19.625 27.3426 19.817 27.2535 19.817 27.2535Z" fill="#FFE05F"/>
</g>
</g>
<mask id="mask2_43_745" style="mask-type:luminance" maskUnits="userSpaceOnUse" x="15" y="39" width="13" height="3">
<path d="M15.109 39.5615H27.103V41.9365H15.109V39.5615Z" fill="white"/>
</mask>
<g mask="url(#mask2_43_745)">
<g opacity="0.45">
<path d="M27.103 40.2426C27.103 40.2426 26.923 40.3556 26.606 40.5076C26.289 40.6626 25.834 40.8556 25.283 41.0466C24.183 41.4276 22.699 41.7406 21.2 41.8686C19.702 41.9966 18.187 41.9376 17.038 41.7456C16.464 41.6486 15.982 41.5336 15.643 41.4326C15.305 41.3346 15.109 41.2536 15.109 41.2536C15.109 41.2536 15.289 41.1396 15.606 40.9866C15.923 40.8306 16.378 40.6366 16.929 40.4456C18.028 40.0636 19.512 39.7516 21.012 39.6276C22.511 39.5016 24.025 39.5616 25.174 39.7536C25.748 39.8496 26.23 39.9636 26.569 40.0636C26.907 40.1616 27.103 40.2426 27.103 40.2426Z" fill="#FFE05F"/>
</g>
</g>
<mask id="mask3_43_745" style="mask-type:luminance" maskUnits="userSpaceOnUse" x="13" y="46" width="10" height="9">
<path d="M13.525 46.3616H22.22V54.6836H13.525V46.3616Z" fill="white"/>
</mask>
<g mask="url(#mask3_43_745)">
<g opacity="0.45">
<path d="M22.22 54.6836C22.22 54.6836 22.017 54.6246 21.693 54.4866C21.367 54.3516 20.92 54.1386 20.413 53.8516C19.399 53.2796 18.183 52.3746 17.095 51.3356C16.007 50.2956 15.049 49.1216 14.433 48.1326C14.125 47.6386 13.892 47.2016 13.744 46.8816C13.593 46.5626 13.525 46.3616 13.525 46.3616C13.525 46.3616 13.729 46.4206 14.053 46.5576C14.38 46.6926 14.827 46.9056 15.334 47.1906C16.348 47.7626 17.564 48.6686 18.65 49.7106C19.736 50.7516 20.693 51.9266 21.31 52.9146C21.618 53.4086 21.851 53.8446 22 54.1656C22.152 54.4836 22.22 54.6836 22.22 54.6836Z" fill="#FFE05F"/>
</g>
</g>
<path d="M342.757 5.08953V5.42854C342.757 6.99354 341.488 8.26355 339.922 8.26355H16.688C15.123 8.26355 13.853 6.99354 13.853 5.42854C13.853 2.88354 10.786 1.65254 8.98301 3.44854C4.84101 7.57554 2.23401 13.2585 2.23401 19.5125V26.0615C2.23401 40.3595 13.933 52.0575 28.231 52.0575H329.272C343.571 52.0575 355.27 40.3595 355.27 26.0615V19.5125C355.27 13.0025 352.133 7.11053 347.46 2.94953C345.643 1.33053 342.757 2.65553 342.757 5.08953Z" fill="#F7CE26"/>
<path d="M11.009 4.83253C10.873 4.83253 10.714 4.87852 10.56 5.03152C6.632 8.94552 4.469 14.0865 4.469 19.5125V26.0615C4.469 39.1635 15.128 49.8235 28.231 49.8235H329.272C342.375 49.8235 353.035 39.1635 353.035 26.0615V19.5125C353.035 14.0435 350.461 8.61454 345.974 4.61754C345.795 4.45854 345.586 4.42753 345.359 4.53053C345.221 4.59253 344.991 4.74652 344.991 5.08952V5.42852C344.991 8.22352 342.718 10.4975 339.922 10.4975H16.688C13.893 10.4975 11.619 8.22352 11.619 5.42852C11.619 5.16652 11.499 4.98253 11.263 4.88453C11.2 4.85853 11.111 4.83253 11.009 4.83253ZM329.272 54.2915H28.231C12.665 54.2915 0 41.6285 0 26.0615V19.5125C0 12.8905 2.63 6.62352 7.406 1.86552C8.878 0.399521 11.064 -0.0344728 12.977 0.756527C14.896 1.55453 16.088 3.34452 16.088 5.42852C16.088 5.75952 16.357 6.02853 16.688 6.02853H339.922C340.252 6.02853 340.522 5.75952 340.522 5.42852V5.08952C340.522 3.06252 341.674 1.28553 343.53 0.452526C345.369 -0.371474 347.446 -0.0554707 348.946 1.28053C354.384 6.12353 357.504 12.7695 357.504 19.5125V26.0615C357.504 41.6275 344.839 54.2915 329.272 54.2915Z" fill="black"/>
<mask id="mask4_43_745" style="mask-type:luminance" maskUnits="userSpaceOnUse" x="326" y="11" width="25" height="38">
<path d="M326.893 11.6135H350.455V48.0355H326.893V11.6135Z" fill="white"/>
</mask>
<g mask="url(#mask4_43_745)">
<g opacity="0.45">
<path d="M329.571 48.0355C328.24 48.0355 327.085 47.0445 326.914 45.6905C326.729 44.2205 327.769 42.8795 329.238 42.6935C334.441 42.0375 338.41 39.8715 341.038 36.2565C347.023 28.0205 344.617 14.9295 344.592 14.7975C344.315 13.3425 345.269 11.9395 346.724 11.6615C348.182 11.3815 349.582 12.3395 349.861 13.7945C349.98 14.4235 352.711 29.3175 345.376 39.4105C341.842 44.2705 336.64 47.1655 329.911 48.0145C329.796 48.0285 329.683 48.0355 329.571 48.0355Z" fill="#FFE05F"/>
</g>
</g>
<mask id="mask5_43_745" style="mask-type:luminance" maskUnits="userSpaceOnUse" x="224" y="42" width="95" height="7">
<path d="M224.11 42.2915H318.849V48.2915H224.11V42.2915Z" fill="white"/>
</mask>
<g mask="url(#mask5_43_745)">
<g opacity="0.45">
<path d="M316.168 48.2915H226.792C225.311 48.2915 224.11 46.7735 224.11 45.2915C224.11 43.8105 225.311 42.2915 226.792 42.2915H316.168C317.649 42.2915 318.849 43.8105 318.849 45.2915C318.849 46.7735 317.649 48.2915 316.168 48.2915Z" fill="#FFE05F"/>
</g>
</g>
<mask id="mask6_43_745" style="mask-type:luminance" maskUnits="userSpaceOnUse" x="15" y="16" width="282" height="6">
<path d="M15.865 16.0415H296.505V21.2915H15.865V16.0415Z" fill="white"/>
</mask>
<g mask="url(#mask6_43_745)">
<g opacity="0.45">
<path d="M293.824 21.2915H18.546C17.066 21.2915 15.865 20.1485 15.865 18.6665C15.865 17.1855 17.066 16.0415 18.546 16.0415H293.824C295.305 16.0415 296.505 17.1855 296.505 18.6665C296.505 20.1485 295.305 21.2915 293.824 21.2915Z" fill="#FFE471"/>
</g>
</g>
</svg>
