<svg width="348" height="75" viewBox="0 0 348 75" fill="none" xmlns="http://www.w3.org/2000/svg">
<path d="M173.635 2.23401C83.423 2.23401 9.445 30.483 2.325 66.793C1.74 69.778 4.071 72.544 7.113 72.544H340.157C343.199 72.544 345.53 69.778 344.945 66.793C337.825 30.483 263.846 2.23401 173.635 2.23401Z" fill="#F7CE26"/>
<path d="M173.635 4.469C85.7028 4.469 11.4178 32.034 4.51784 67.224C4.31684 68.247 4.77084 68.989 5.05984 69.34C5.56784 69.957 6.31584 70.31 7.11284 70.31H340.157C340.954 70.31 341.702 69.957 342.211 69.34C342.499 68.988 342.953 68.247 342.752 67.224C335.852 32.034 261.566 4.469 173.635 4.469ZM340.157 74.779H7.11284C4.97484 74.779 2.96884 73.831 1.60884 72.178C0.264843 70.546 -0.273156 68.427 0.131844 66.363C7.55084 28.53 82.1408 0 173.635 0C265.128 0 339.719 28.53 347.138 66.363C347.543 68.427 347.004 70.546 345.661 72.178C344.301 73.831 342.295 74.779 340.157 74.779Z" fill="black"/>
<mask id="mask0_43_783" style="mask-type:luminance" maskUnits="userSpaceOnUse" x="5" y="4" width="337" height="68">
<path d="M5.01294 4.39905H341.014V71.284H5.01294V4.39905Z" fill="white"/>
</mask>
<g mask="url(#mask0_43_783)">
<g opacity="0.45">
<path d="M173.013 19.232C253.185 19.232 320.276 41.363 337.299 71.284C339.734 70.746 341.428 68.413 340.925 65.92C333.946 31.319 261.435 4.40002 173.013 4.40002C84.591 4.40002 12.0809 31.319 5.10095 65.92C4.59895 68.413 6.29295 70.746 8.72695 71.284C25.7509 41.363 92.841 19.232 173.013 19.232Z" fill="#FFE05F"/>
</g>
</g>
<path d="M122.021 29.0701C122.021 29.7491 120.27 30.2991 118.11 30.2991C115.951 30.2991 114.2 29.7491 114.2 29.0701C114.2 28.3911 115.951 27.8411 118.11 27.8411C120.27 27.8411 122.021 28.3911 122.021 29.0701Z" fill="#FFE05F"/>
<path d="M97.8888 36.22C97.8888 36.899 96.1388 37.45 93.9788 37.45C91.8198 37.45 90.0688 36.899 90.0688 36.22C90.0688 35.542 91.8198 34.991 93.9788 34.991C96.1388 34.991 97.8888 35.542 97.8888 36.22Z" fill="#FFE05F"/>
<path d="M69.289 46.9451C69.289 47.6241 67.538 48.1751 65.378 48.1751C63.219 48.1751 61.469 47.6241 61.469 46.9451C61.469 46.2671 63.219 45.7161 65.378 45.7161C67.538 45.7161 69.289 46.2671 69.289 46.9451Z" fill="#FFE05F"/>
<path d="M75.5451 36.22C75.5451 36.899 73.7951 37.45 71.6351 37.45C69.4761 37.45 67.7251 36.899 67.7251 36.22C67.7251 35.542 69.4761 34.991 71.6351 34.991C73.7951 34.991 75.5451 35.542 75.5451 36.22Z" fill="#FFE05F"/>
<path d="M122.915 47.839C122.915 48.517 121.164 49.068 119.004 49.068C116.845 49.068 115.094 48.517 115.094 47.839C115.094 47.16 116.845 46.609 119.004 46.609C121.164 46.609 122.915 47.16 122.915 47.839Z" fill="#FFE05F"/>
<path d="M131.852 36.22C131.852 36.899 130.101 37.45 127.941 37.45C125.782 37.45 124.031 36.899 124.031 36.22C124.031 35.542 125.782 34.991 127.941 34.991C130.101 34.991 131.852 35.542 131.852 36.22Z" fill="#FFE05F"/>
<path d="M155.09 23.707C155.09 24.386 153.339 24.937 151.179 24.937C149.02 24.937 147.269 24.386 147.269 23.707C147.269 23.029 149.02 22.478 151.179 22.478C153.339 22.478 155.09 23.029 155.09 23.707Z" fill="#FFE05F"/>
<path d="M162.239 44.264C162.239 44.943 160.489 45.493 158.329 45.493C156.17 45.493 154.419 44.943 154.419 44.264C154.419 43.585 156.17 43.035 158.329 43.035C160.489 43.035 162.239 43.585 162.239 44.264Z" fill="#FFE05F"/>
<path d="M196.202 48.7329C196.202 49.4109 194.452 49.9619 192.292 49.9619C190.133 49.9619 188.382 49.4109 188.382 48.7329C188.382 48.0539 190.133 47.5029 192.292 47.5029C194.452 47.5029 196.202 48.0539 196.202 48.7329Z" fill="#FFE05F"/>
<path d="M177.434 26.389C177.434 27.067 175.683 27.618 173.523 27.618C171.364 27.618 169.613 27.067 169.613 26.389C169.613 25.71 171.364 25.16 173.523 25.16C175.683 25.16 177.434 25.71 177.434 26.389Z" fill="#FFE05F"/>
<path d="M204.246 35.3259C204.246 36.0049 202.496 36.5559 200.336 36.5559C198.176 36.5559 196.426 36.0049 196.426 35.3259C196.426 34.6479 198.176 34.0969 200.336 34.0969C202.496 34.0969 204.246 34.6479 204.246 35.3259Z" fill="#FFE05F"/>
<path d="M220.334 27.283C220.334 27.961 218.584 28.512 216.424 28.512C214.265 28.512 212.514 27.961 212.514 27.283C212.514 26.604 214.265 26.053 216.424 26.053C218.584 26.053 220.334 26.604 220.334 27.283Z" fill="#FFE05F"/>
<path d="M236.422 47.839C236.422 48.517 234.671 49.068 232.511 49.068C230.352 49.068 228.602 48.517 228.602 47.839C228.602 47.16 230.352 46.609 232.511 46.609C234.671 46.609 236.422 47.16 236.422 47.839Z" fill="#FFE05F"/>
<path d="M257.872 36.22C257.872 36.899 256.121 37.45 253.961 37.45C251.802 37.45 250.052 36.899 250.052 36.22C250.052 35.542 251.802 34.991 253.961 34.991C256.121 34.991 257.872 35.542 257.872 36.22Z" fill="#FFE05F"/>
</svg>
