<svg width="63" height="47" viewBox="0 0 63 47" fill="none" xmlns="http://www.w3.org/2000/svg">
<mask id="mask0_29_191" style="mask-type:luminance" maskUnits="userSpaceOnUse" x="1" y="38" width="1" height="4">
<path d="M1.27509 38.035H1.66917V41.4743H1.27509V38.035Z" fill="white"/>
</mask>
<g mask="url(#mask0_29_191)">
<g opacity="0.45">
<path d="M1.47185 38.035C1.47185 38.035 1.48902 38.0888 1.51093 38.1828C1.53336 38.2768 1.56034 38.4111 1.58557 38.5722C1.63586 38.8948 1.66881 39.3246 1.66898 39.7547C1.66916 40.1844 1.63674 40.6145 1.5861 40.9368C1.56087 41.0979 1.53371 41.2322 1.5111 41.3263C1.4892 41.4203 1.47185 41.4743 1.47185 41.4743C1.47185 41.4743 1.45468 41.4203 1.43277 41.3263C1.41017 41.2322 1.38301 41.0979 1.35778 40.9368C1.30714 40.6145 1.27472 40.1844 1.27472 39.7547C1.27507 39.3246 1.30784 38.8948 1.3583 38.5722C1.38354 38.4111 1.41052 38.2768 1.43295 38.1828C1.45485 38.0888 1.47185 38.035 1.47185 38.035Z" fill="#FFE05F"/>
</g>
</g>
<mask id="mask1_29_191" style="mask-type:luminance" maskUnits="userSpaceOnUse" x="2" y="39" width="2" height="3">
<path d="M2.17969 39.1027H3.47252V41.8198H2.17969V39.1027Z" fill="white"/>
</mask>
<g mask="url(#mask1_29_191)">
<g opacity="0.45">
<path d="M3.47252 39.1027C3.47252 39.1027 3.46586 39.1624 3.44781 39.2584C3.43029 39.3553 3.40103 39.4881 3.36038 39.6407C3.27889 39.9459 3.14327 40.3185 2.98188 40.6583C2.82032 40.998 2.633 41.3052 2.47197 41.5095C2.39136 41.6115 2.31934 41.6904 2.26608 41.7424C2.21333 41.7947 2.17969 41.8198 2.17969 41.8198C2.17969 41.8198 2.18617 41.7601 2.20422 41.6638C2.22174 41.5669 2.25065 41.4338 2.29131 41.2809C2.37261 40.9757 2.50859 40.6037 2.67033 40.2642C2.83206 39.9248 3.01973 39.6179 3.18059 39.4136C3.2612 39.3115 3.33304 39.2324 3.38613 39.1807C3.43888 39.1281 3.47252 39.1027 3.47252 39.1027Z" fill="#FFE05F"/>
</g>
</g>
<mask id="mask2_29_191" style="mask-type:luminance" maskUnits="userSpaceOnUse" x="2" y="42" width="3" height="2">
<path d="M2.64752 42.6195H4.74921V43.2982H2.64752V42.6195Z" fill="white"/>
</mask>
<g mask="url(#mask2_29_191)">
<g opacity="0.45">
<path d="M4.74921 42.8139C4.74921 42.8139 4.71767 42.8462 4.66212 42.8897C4.60657 42.934 4.52685 42.9891 4.43029 43.0437C4.23754 43.1525 3.9775 43.242 3.71484 43.2786C3.45235 43.3151 3.18687 43.2983 2.98554 43.2434C2.88496 43.2157 2.8005 43.1828 2.74109 43.154C2.68187 43.126 2.64752 43.1028 2.64752 43.1028C2.64752 43.1028 2.67906 43.0703 2.73461 43.0265C2.79016 42.982 2.86989 42.9265 2.96644 42.8719C3.15901 42.7628 3.41905 42.6736 3.68189 42.6382C3.94456 42.6022 4.20986 42.6193 4.4112 42.6742C4.51178 42.7016 4.59624 42.7342 4.65564 42.7628C4.71487 42.7908 4.74921 42.8139 4.74921 42.8139Z" fill="#FFE05F"/>
</g>
</g>
<mask id="mask3_29_191" style="mask-type:luminance" maskUnits="userSpaceOnUse" x="2" y="44" width="2" height="3">
<path d="M2.37 44.5627H3.89361V46.9407H2.37V44.5627Z" fill="white"/>
</mask>
<g mask="url(#mask3_29_191)">
<g opacity="0.45">
<path d="M3.89361 46.9407C3.89361 46.9407 3.85803 46.9239 3.80126 46.8844C3.74414 46.8459 3.66581 46.785 3.57697 46.703C3.39929 46.5395 3.18621 46.2809 2.99556 45.984C2.80491 45.6869 2.63704 45.3514 2.5291 45.0688C2.47513 44.9276 2.4343 44.8028 2.40837 44.7113C2.38191 44.6202 2.37 44.5627 2.37 44.5627C2.37 44.5627 2.40574 44.5796 2.46252 44.6188C2.51982 44.6573 2.59814 44.7182 2.68698 44.7996C2.86466 44.9631 3.07774 45.222 3.26804 45.5197C3.45834 45.8172 3.62603 46.1529 3.73415 46.4352C3.78812 46.5764 3.82895 46.701 3.85506 46.7927C3.88169 46.8836 3.89361 46.9407 3.89361 46.9407Z" fill="#FFE05F"/>
</g>
</g>
<path d="M60.0607 32.7694V32.8662C60.0607 33.3134 59.8384 33.6763 59.564 33.6763H2.92423C2.65 33.6763 2.42746 33.3134 2.42746 32.8662C2.42746 32.139 1.89003 31.7873 1.5741 32.3005C0.8483 33.4797 0.391479 35.1036 0.391479 36.8907V38.762C0.391479 42.8476 2.44148 46.1903 4.94689 46.1903H57.6978C60.2034 46.1903 62.2534 42.8476 62.2534 38.762V36.8907C62.2534 35.0305 61.7037 33.3469 60.8848 32.1579C60.5665 31.6953 60.0607 32.0739 60.0607 32.7694Z" fill="#F7CE26"/>
<path d="M1.92909 32.6959C1.90526 32.6959 1.8774 32.7091 1.85041 32.7528C1.16211 33.8712 0.783095 35.3402 0.783095 36.8907V38.762C0.783095 42.5059 2.65085 45.5519 4.94687 45.5519H57.6978C59.9938 45.5519 61.8617 42.5059 61.8617 38.762V36.8907C61.8617 35.3279 61.4107 33.7766 60.6244 32.6345C60.5931 32.5891 60.5565 32.5802 60.5167 32.6096C60.4925 32.6274 60.4522 32.6714 60.4522 32.7694V32.8662C60.4522 33.6649 60.0539 34.3147 59.564 34.3147H2.92421C2.43445 34.3147 2.03598 33.6649 2.03598 32.8662C2.03598 32.7914 2.01495 32.7388 1.9736 32.7108C1.96256 32.7034 1.94696 32.6959 1.92909 32.6959ZM57.6978 46.8286H4.94687C2.21927 46.8286 0 43.2102 0 38.762V36.8907C0 34.9985 0.460851 33.2077 1.29774 31.8481C1.55568 31.4292 1.93873 31.3052 2.27394 31.5312C2.6102 31.7593 2.81907 32.2707 2.81907 32.8662C2.81907 32.9608 2.86621 33.0377 2.92421 33.0377H59.564C59.6218 33.0377 59.6691 32.9608 59.6691 32.8662V32.7694C59.6691 32.1902 59.871 31.6824 60.1962 31.4444C60.5184 31.2089 60.8824 31.2992 61.1452 31.681C62.0981 33.0648 62.6448 34.9639 62.6448 36.8907V38.762C62.6448 43.2099 60.4256 46.8286 57.6978 46.8286Z" fill="black"/>
<mask id="mask4_29_191" style="mask-type:luminance" maskUnits="userSpaceOnUse" x="57" y="34" width="5" height="12">
<path d="M57.2809 34.6335H61.4096V45.041H57.2809V34.6335Z" fill="white"/>
</mask>
<g mask="url(#mask4_29_191)">
<g opacity="0.45">
<path d="M57.75 45.0408C57.5168 45.0408 57.3144 44.7576 57.2844 44.3707C57.252 43.9507 57.4343 43.5675 57.6917 43.5143C58.6034 43.3269 59.2989 42.708 59.7594 41.675C60.8081 39.3216 60.3865 35.5809 60.3821 35.5432C60.3336 35.1274 60.5008 34.7265 60.7557 34.6471C61.0112 34.5671 61.2565 34.8408 61.3054 35.2566C61.3262 35.4363 61.8048 39.6922 60.5195 42.5762C59.9002 43.965 58.9887 44.7922 57.8096 45.0348C57.7894 45.0388 57.7696 45.0408 57.75 45.0408Z" fill="#FFE05F"/>
</g>
</g>
<mask id="mask5_29_191" style="mask-type:luminance" maskUnits="userSpaceOnUse" x="39" y="43" width="17" height="3">
<path d="M39.2704 43.3997H55.8714V45.1141H39.2704V43.3997Z" fill="white"/>
</mask>
<g mask="url(#mask5_29_191)">
<g opacity="0.45">
<path d="M55.4016 45.1141H39.7404C39.4809 45.1141 39.2704 44.6804 39.2704 44.2569C39.2704 43.8337 39.4809 43.3997 39.7404 43.3997H55.4016C55.6611 43.3997 55.8714 43.8337 55.8714 44.2569C55.8714 44.6804 55.6611 45.1141 55.4016 45.1141Z" fill="#FFE05F"/>
</g>
</g>
<mask id="mask6_29_191" style="mask-type:luminance" maskUnits="userSpaceOnUse" x="2" y="35" width="50" height="3">
<path d="M2.77997 35.8988H51.956V37.399H2.77997V35.8988Z" fill="white"/>
</mask>
<g mask="url(#mask6_29_191)">
<g opacity="0.45">
<path d="M51.4863 37.399H3.24976C2.99042 37.399 2.77997 37.0724 2.77997 36.6489C2.77997 36.2257 2.99042 35.8988 3.24976 35.8988H51.4863C51.7458 35.8988 51.956 36.2257 51.956 36.6489C51.956 37.0724 51.7458 37.399 51.4863 37.399Z" fill="#FFE471"/>
</g>
</g>
<path d="M31.085 0.697632C15.2773 0.697632 2.31424 8.76966 1.06662 19.1451C0.96411 19.998 1.37257 20.7884 1.90561 20.7884H60.2643C60.7974 20.7884 61.2058 19.998 61.1033 19.1451C59.8557 8.76966 46.8925 0.697632 31.085 0.697632Z" fill="#F7CE26"/>
<path d="M31.0849 1.33632C15.6767 1.33632 2.65991 9.2129 1.45083 19.2683C1.41561 19.5606 1.49517 19.7726 1.54581 19.8729C1.63482 20.0492 1.76589 20.1501 1.90555 20.1501H60.2643C60.4039 20.1501 60.535 20.0492 60.6242 19.8729C60.6747 19.7723 60.7542 19.5606 60.719 19.2683C59.5099 9.2129 46.4929 1.33632 31.0849 1.33632ZM60.2643 21.4271H1.90555C1.53091 21.4271 1.17941 21.1562 0.941095 20.6839C0.705588 20.2175 0.611315 19.612 0.682283 19.0223C1.9823 8.21165 15.0526 0.0593262 31.0849 0.0593262C47.1171 0.0593262 60.1875 8.21165 61.4876 19.0223C61.5585 19.612 61.4641 20.2175 61.2287 20.6839C60.9904 21.1562 60.6389 21.4271 60.2643 21.4271Z" fill="black"/>
<mask id="mask7_29_191" style="mask-type:luminance" maskUnits="userSpaceOnUse" x="1" y="1" width="60" height="20">
<path d="M1.5376 1.31628H60.4145V20.4284H1.5376V1.31628Z" fill="white"/>
</mask>
<g mask="url(#mask7_29_191)">
<g opacity="0.45">
<path d="M30.9758 5.55495C45.0242 5.55495 56.7804 11.8788 59.7633 20.4286C60.19 20.2749 60.4868 19.6082 60.3987 18.8958C59.1758 9.00876 46.4698 1.31677 30.9758 1.31677C15.4817 1.31677 2.77593 9.00876 1.55284 18.8958C1.46487 19.6082 1.76171 20.2749 2.18822 20.4286C5.1713 11.8788 16.9274 5.55495 30.9758 5.55495Z" fill="#FFE05F"/>
</g>
</g>
<path d="M22.0407 8.36595C22.0407 8.55997 21.7339 8.71713 21.3554 8.71713C20.9771 8.71713 20.6703 8.55997 20.6703 8.36595C20.6703 8.17193 20.9771 8.01477 21.3554 8.01477C21.7339 8.01477 22.0407 8.17193 22.0407 8.36595Z" fill="#FFE05F"/>
<path d="M17.8121 10.4089C17.8121 10.6029 17.5054 10.7604 17.1269 10.7604C16.7486 10.7604 16.4418 10.6029 16.4418 10.4089C16.4418 10.2152 16.7486 10.0577 17.1269 10.0577C17.5054 10.0577 17.8121 10.2152 17.8121 10.4089Z" fill="#FFE05F"/>
<path d="M12.8006 13.4736C12.8006 13.6676 12.4938 13.8251 12.1153 13.8251C11.7369 13.8251 11.4303 13.6676 11.4303 13.4736C11.4303 13.2799 11.7369 13.1224 12.1153 13.1224C12.4938 13.1224 12.8006 13.2799 12.8006 13.4736Z" fill="#FFE05F"/>
<path d="M13.8968 10.4089C13.8968 10.6029 13.5902 10.7604 13.2117 10.7604C12.8334 10.7604 12.5266 10.6029 12.5266 10.4089C12.5266 10.2152 12.8334 10.0577 13.2117 10.0577C13.5902 10.0577 13.8968 10.2152 13.8968 10.4089Z" fill="#FFE05F"/>
<path d="M22.1974 13.729C22.1974 13.9228 21.8905 14.0802 21.512 14.0802C21.1337 14.0802 20.8269 13.9228 20.8269 13.729C20.8269 13.535 21.1337 13.3776 21.512 13.3776C21.8905 13.3776 22.1974 13.535 22.1974 13.729Z" fill="#FFE05F"/>
<path d="M23.7633 10.4089C23.7633 10.6029 23.4565 10.7604 23.078 10.7604C22.6997 10.7604 22.3929 10.6029 22.3929 10.4089C22.3929 10.2152 22.6997 10.0577 23.078 10.0577C23.4565 10.0577 23.7633 10.2152 23.7633 10.4089Z" fill="#FFE05F"/>
<path d="M27.8354 6.83348C27.8354 7.0275 27.5285 7.18495 27.15 7.18495C26.7717 7.18495 26.4649 7.0275 26.4649 6.83348C26.4649 6.63975 26.7717 6.4823 27.15 6.4823C27.5285 6.4823 27.8354 6.63975 27.8354 6.83348Z" fill="#FFE05F"/>
<path d="M29.0881 12.7075C29.0881 12.9015 28.7814 13.0587 28.4029 13.0587C28.0246 13.0587 27.7178 12.9015 27.7178 12.7075C27.7178 12.5135 28.0246 12.3563 28.4029 12.3563C28.7814 12.3563 29.0881 12.5135 29.0881 12.7075Z" fill="#FFE05F"/>
<path d="M35.0393 13.9845C35.0393 14.1783 34.7326 14.3357 34.3541 14.3357C33.9758 14.3357 33.669 14.1783 33.669 13.9845C33.669 13.7905 33.9758 13.6331 34.3541 13.6331C34.7326 13.6331 35.0393 13.7905 35.0393 13.9845Z" fill="#FFE05F"/>
<path d="M31.7506 7.59984C31.7506 7.79357 31.4438 7.95102 31.0653 7.95102C30.687 7.95102 30.3801 7.79357 30.3801 7.59984C30.3801 7.40582 30.687 7.24866 31.0653 7.24866C31.4438 7.24866 31.7506 7.40582 31.7506 7.59984Z" fill="#FFE05F"/>
<path d="M36.4488 10.1535C36.4488 10.3476 36.1422 10.505 35.7637 10.505C35.3852 10.505 35.0786 10.3476 35.0786 10.1535C35.0786 9.95981 35.3852 9.80237 35.7637 9.80237C36.1422 9.80237 36.4488 9.95981 36.4488 10.1535Z" fill="#FFE05F"/>
<path d="M39.2679 7.85525C39.2679 8.04899 38.9613 8.20643 38.5828 8.20643C38.2045 8.20643 37.8976 8.04899 37.8976 7.85525C37.8976 7.66123 38.2045 7.50378 38.5828 7.50378C38.9613 7.50378 39.2679 7.66123 39.2679 7.85525Z" fill="#FFE05F"/>
<path d="M42.0871 13.729C42.0871 13.9228 41.7803 14.0802 41.4018 14.0802C41.0234 14.0802 40.7168 13.9228 40.7168 13.729C40.7168 13.535 41.0234 13.3776 41.4018 13.3776C41.7803 13.3776 42.0871 13.535 42.0871 13.729Z" fill="#FFE05F"/>
<path d="M45.8457 10.4089C45.8457 10.6029 45.5389 10.7604 45.1604 10.7604C44.7821 10.7604 44.4754 10.6029 44.4754 10.4089C44.4754 10.2152 44.7821 10.0577 45.1604 10.0577C45.5389 10.0577 45.8457 10.2152 45.8457 10.4089Z" fill="#FFE05F"/>
</svg>
